<svg xmlns="http://www.w3.org/2000/svg" viewBox="0 0 500 500"><g id="freepik--background-simple--inject-31"><path d="M412.22,105.56C403.33,90.43,390.89,78.05,375.16,68c-52.37-33.63-123.55-45.74-184.74-36.6-43.71,6.53-72.85,36.24-91.5,75-22,45.75-42,91.26-67.1,135.69C3,293-9.87,346,52.67,390c54.12,38.08,122,28.2,184,27,20.56-.4,41.27.28,61.5,4.26,40.2,7.9,79.24,36,118.78,9.76,30.05-19.95,47.75-57.64,56.33-91.78,5.11-20.34,9.13-42.79,7.23-64.39-2.07-23.66-13-41.48-24.21-61.63a359.15,359.15,0,0,1-32.78-80.48A110.36,110.36,0,0,0,412.22,105.56Z" style="fill:#263238"></path><path d="M412.22,105.56C403.33,90.43,390.89,78.05,375.16,68c-52.37-33.63-123.55-45.74-184.74-36.6-43.71,6.53-72.85,36.24-91.5,75-22,45.75-42,91.26-67.1,135.69C3,293-9.87,346,52.67,390c54.12,38.08,122,28.2,184,27,20.56-.4,41.27.28,61.5,4.26,40.2,7.9,79.24,36,118.78,9.76,30.05-19.95,47.75-57.64,56.33-91.78,5.11-20.34,9.13-42.79,7.23-64.39-2.07-23.66-13-41.48-24.21-61.63a359.15,359.15,0,0,1-32.78-80.48A110.36,110.36,0,0,0,412.22,105.56Z" style="fill:#fff;opacity:0.7000000000000001"></path></g><g id="freepik--Plant--inject-31"><line x1="431.54" y1="270.73" x2="447.54" y2="424.02" style="fill:none;stroke:#263238;stroke-miterlimit:10;stroke-width:2px"></line><line x1="444.96" y1="394.69" x2="437.71" y2="387.03" style="fill:none;stroke:#263238;stroke-miterlimit:10;stroke-width:2px"></line><path d="M439.91,389.32a8.19,8.19,0,0,0-2.89-6.15c-1.86-1.66-11.66-5.78-12.59-2.33C423.42,384.59,433.45,392,439.91,389.32Z" style="fill:#263238;stroke:#263238;stroke-miterlimit:10"></path><line x1="439.91" y1="389.32" x2="430.58" y2="383.51" style="fill:none;stroke:#263238;stroke-miterlimit:10;stroke-width:0.5px"></line><line x1="446.78" y1="412.12" x2="439.52" y2="404.46" style="fill:none;stroke:#263238;stroke-miterlimit:10;stroke-width:2px"></line><path d="M441.73,406.75a8.2,8.2,0,0,0-2.89-6.15c-1.86-1.66-11.66-5.78-12.59-2.33C425.24,402,435.27,409.39,441.73,406.75Z" style="fill:#263238;stroke:#263238;stroke-miterlimit:10"></path><line x1="441.73" y1="406.75" x2="432.4" y2="400.94" style="fill:none;stroke:#263238;stroke-miterlimit:10;stroke-width:0.5px"></line><line x1="440.52" y1="352.15" x2="433.27" y2="344.49" style="fill:none;stroke:#263238;stroke-miterlimit:10;stroke-width:2px"></line><path d="M435.47,346.78a8.19,8.19,0,0,0-2.89-6.15c-1.86-1.66-11.66-5.78-12.59-2.33C419,342.05,429,349.42,435.47,346.78Z" style="fill:#263238;stroke:#263238;stroke-miterlimit:10"></path><line x1="435.47" y1="346.78" x2="426.14" y2="340.97" style="fill:none;stroke:#263238;stroke-miterlimit:10;stroke-width:0.5px"></line><line x1="442.34" y1="369.58" x2="435.09" y2="361.92" style="fill:none;stroke:#263238;stroke-miterlimit:10;stroke-width:2px"></line><path d="M437.29,364.21a8.2,8.2,0,0,0-2.89-6.15c-1.86-1.66-11.66-5.78-12.59-2.33C420.8,359.48,430.83,366.85,437.29,364.21Z" style="fill:#263238;stroke:#263238;stroke-miterlimit:10"></path><line x1="437.29" y1="364.21" x2="427.96" y2="358.4" style="fill:none;stroke:#263238;stroke-miterlimit:10;stroke-width:0.5px"></line><line x1="437.56" y1="323.83" x2="430.31" y2="316.17" style="fill:none;stroke:#263238;stroke-miterlimit:10;stroke-width:2px"></line><path d="M432.51,318.46a8.2,8.2,0,0,0-2.88-6.15C427.77,310.65,418,306.53,417,310,416,313.73,426.06,321.1,432.51,318.46Z" style="fill:#263238;stroke:#263238;stroke-miterlimit:10"></path><line x1="432.51" y1="318.46" x2="423.19" y2="312.65" style="fill:none;stroke:#263238;stroke-miterlimit:10;stroke-width:0.5px"></line><line x1="434.59" y1="295.39" x2="427.34" y2="287.73" style="fill:none;stroke:#263238;stroke-miterlimit:10;stroke-width:2px"></line><path d="M429.55,290a8.23,8.23,0,0,0-2.89-6.15c-1.86-1.66-11.66-5.79-12.59-2.34C413.06,285.29,423.09,292.66,429.55,290Z" style="fill:#263238;stroke:#263238;stroke-miterlimit:10"></path><line x1="429.55" y1="290.02" x2="420.22" y2="284.21" style="fill:none;stroke:#263238;stroke-miterlimit:10;stroke-width:0.5px"></line><line x1="443.74" y1="384.37" x2="449.25" y2="375.38" style="fill:none;stroke:#263238;stroke-miterlimit:10;stroke-width:2px"></line><path d="M447.57,378.08a8.2,8.2,0,0,1,1.56-6.61c1.47-2,10.21-8.07,11.83-4.89C462.72,370.05,454.43,379.33,447.57,378.08Z" style="fill:#263238;stroke:#263238;stroke-miterlimit:10"></path><line x1="447.57" y1="378.08" x2="455.97" y2="370.05" style="fill:none;stroke:#263238;stroke-miterlimit:10;stroke-width:0.5px"></line><line x1="438.95" y1="338.5" x2="444.47" y2="329.5" style="fill:none;stroke:#263238;stroke-miterlimit:10;stroke-width:2px"></line><path d="M442.78,332.2a8.2,8.2,0,0,1,1.56-6.61c1.48-2,10.21-8.07,11.83-4.88C457.94,324.17,449.65,333.45,442.78,332.2Z" style="fill:#263238;stroke:#263238;stroke-miterlimit:10"></path><line x1="442.78" y1="332.2" x2="451.18" y2="324.18" style="fill:none;stroke:#263238;stroke-miterlimit:10;stroke-width:0.5px"></line><line x1="436.85" y1="318.34" x2="442.36" y2="309.34" style="fill:none;stroke:#263238;stroke-miterlimit:10;stroke-width:2px"></line><path d="M440.68,312a8.22,8.22,0,0,1,1.55-6.61c1.48-2,10.22-8.07,11.84-4.88C455.83,304,447.54,313.29,440.68,312Z" style="fill:#263238;stroke:#263238;stroke-miterlimit:10"></path><line x1="440.68" y1="312.04" x2="449.08" y2="304.02" style="fill:none;stroke:#263238;stroke-miterlimit:10;stroke-width:0.5px"></line><line x1="433.76" y1="288.78" x2="439.28" y2="279.79" style="fill:none;stroke:#263238;stroke-miterlimit:10;stroke-width:2px"></line><path d="M437.59,282.49a8.23,8.23,0,0,1,1.56-6.62c1.48-2,10.21-8.06,11.83-4.88C452.75,274.45,444.46,283.74,437.59,282.49Z" style="fill:#263238;stroke:#263238;stroke-miterlimit:10"></path><line x1="437.59" y1="282.49" x2="445.99" y2="274.46" style="fill:none;stroke:#263238;stroke-miterlimit:10;stroke-width:0.5px"></line><path d="M431.4,269.88a8.2,8.2,0,0,1,1.56-6.61c1.48-2,10.21-8.07,11.83-4.88C446.56,261.85,438.27,271.13,431.4,269.88Z" style="fill:#263238;stroke:#263238;stroke-miterlimit:10"></path><line x1="431.4" y1="269.88" x2="439.8" y2="261.86" style="fill:none;stroke:#263238;stroke-miterlimit:10;stroke-width:0.5px"></line><path d="M431.89,270.23a8.22,8.22,0,0,1-6.41-2.24c-1.85-1.68-7-11-3.62-12.28C425.49,254.32,433.85,263.53,431.89,270.23Z" style="fill:#263238;stroke:#263238;stroke-miterlimit:10"></path><line x1="431.89" y1="270.23" x2="424.79" y2="261.04" style="fill:none;stroke:#263238;stroke-miterlimit:10;stroke-width:0.5px"></line><line x1="473.73" y1="291.84" x2="457.82" y2="445.14" style="fill:none;stroke:#263238;stroke-miterlimit:10;stroke-width:2px"></line><line x1="461.34" y1="415.9" x2="455.82" y2="406.92" style="fill:none;stroke:#263238;stroke-miterlimit:10;stroke-width:2px"></line><path d="M457.51,409.61A8.2,8.2,0,0,0,456,403c-1.48-2-10.22-8.06-11.84-4.87C442.35,401.59,450.64,410.87,457.51,409.61Z" style="fill:#263238;stroke:#263238;stroke-miterlimit:10"></path><line x1="457.51" y1="409.61" x2="449.58" y2="402.01" style="fill:none;stroke:#263238;stroke-miterlimit:10;stroke-width:0.5px"></line><line x1="465.76" y1="373.36" x2="460.24" y2="364.37" style="fill:none;stroke:#263238;stroke-miterlimit:10;stroke-width:2px"></line><path d="M461.92,367.07a8.2,8.2,0,0,0-1.56-6.61c-1.48-2-10.22-8.06-11.84-4.88C446.76,359.05,455.06,368.32,461.92,367.07Z" style="fill:#263238;stroke:#263238;stroke-miterlimit:10"></path><line x1="461.92" y1="367.07" x2="453.99" y2="359.46" style="fill:none;stroke:#263238;stroke-miterlimit:10;stroke-width:0.5px"></line><line x1="463.95" y1="390.8" x2="458.43" y2="381.81" style="fill:none;stroke:#263238;stroke-miterlimit:10;stroke-width:2px"></line><path d="M460.11,384.51a8.22,8.22,0,0,0-1.56-6.62c-1.48-2-10.21-8.06-11.83-4.87C445,376.48,453.25,385.76,460.11,384.51Z" style="fill:#263238;stroke:#263238;stroke-miterlimit:10"></path><line x1="460.11" y1="384.51" x2="452.18" y2="376.9" style="fill:none;stroke:#263238;stroke-miterlimit:10;stroke-width:0.5px"></line><line x1="468.7" y1="345.04" x2="463.18" y2="336.05" style="fill:none;stroke:#263238;stroke-miterlimit:10;stroke-width:2px"></line><path d="M464.86,338.75a8.2,8.2,0,0,0-1.56-6.61c-1.48-2-10.22-8.06-11.84-4.88C449.7,330.73,458,340,464.86,338.75Z" style="fill:#263238;stroke:#263238;stroke-miterlimit:10"></path><line x1="464.86" y1="338.75" x2="456.93" y2="331.14" style="fill:none;stroke:#263238;stroke-miterlimit:10;stroke-width:0.5px"></line><line x1="471.65" y1="316.6" x2="466.13" y2="307.61" style="fill:none;stroke:#263238;stroke-miterlimit:10;stroke-width:2px"></line><path d="M467.81,310.31a8.22,8.22,0,0,0-1.56-6.62c-1.48-2-10.22-8.06-11.84-4.87C452.65,302.28,461,311.56,467.81,310.31Z" style="fill:#263238;stroke:#263238;stroke-miterlimit:10"></path><line x1="467.81" y1="310.31" x2="459.88" y2="302.7" style="fill:none;stroke:#263238;stroke-miterlimit:10;stroke-width:0.5px"></line><line x1="462.27" y1="405.56" x2="469.52" y2="397.9" style="fill:none;stroke:#263238;stroke-miterlimit:10;stroke-width:2px"></line><path d="M467.32,400.19A8.2,8.2,0,0,1,470.2,394c1.86-1.67,11.66-5.79,12.59-2.34C483.8,395.45,473.78,402.83,467.32,400.19Z" style="fill:#263238;stroke:#263238;stroke-miterlimit:10"></path><line x1="467.32" y1="400.19" x2="477.19" y2="394.07" style="fill:none;stroke:#263238;stroke-miterlimit:10;stroke-width:0.5px"></line><line x1="467.03" y1="359.68" x2="474.28" y2="352.02" style="fill:none;stroke:#263238;stroke-miterlimit:10;stroke-width:2px"></line><path d="M472.08,354.31a8.2,8.2,0,0,1,2.88-6.15c1.86-1.66,11.66-5.79,12.59-2.34C488.56,349.57,478.54,357,472.08,354.31Z" style="fill:#263238;stroke:#263238;stroke-miterlimit:10"></path><line x1="472.08" y1="354.31" x2="481.95" y2="348.19" style="fill:none;stroke:#263238;stroke-miterlimit:10;stroke-width:0.5px"></line><line x1="469.13" y1="339.52" x2="476.37" y2="331.85" style="fill:none;stroke:#263238;stroke-miterlimit:10;stroke-width:2px"></line><path d="M474.17,334.15a8.2,8.2,0,0,1,2.88-6.15c1.86-1.67,11.66-5.79,12.59-2.34C490.65,329.41,480.63,336.79,474.17,334.15Z" style="fill:#263238;stroke:#263238;stroke-miterlimit:10"></path><line x1="474.17" y1="334.15" x2="484.04" y2="328.03" style="fill:none;stroke:#263238;stroke-miterlimit:10;stroke-width:0.5px"></line><line x1="472.19" y1="309.96" x2="479.44" y2="302.3" style="fill:none;stroke:#263238;stroke-miterlimit:10;stroke-width:2px"></line><path d="M477.24,304.59a8.21,8.21,0,0,1,2.88-6.15c1.86-1.66,11.66-5.79,12.59-2.34C493.72,299.85,483.7,307.23,477.24,304.59Z" style="fill:#263238;stroke:#263238;stroke-miterlimit:10"></path><line x1="477.24" y1="304.59" x2="487.11" y2="298.47" style="fill:none;stroke:#263238;stroke-miterlimit:10;stroke-width:0.5px"></line><path d="M473.78,291a8.21,8.21,0,0,1,2.88-6.15c1.86-1.66,11.65-5.79,12.59-2.34C490.26,286.24,480.24,293.62,473.78,291Z" style="fill:#263238;stroke:#263238;stroke-miterlimit:10"></path><line x1="473.78" y1="290.98" x2="483.65" y2="284.86" style="fill:none;stroke:#263238;stroke-miterlimit:10;stroke-width:0.5px"></line><path d="M474.18,291.42a8.19,8.19,0,0,1-5.82-3.51c-1.46-2-4.53-12.2-1-12.76C471.19,274.53,477.48,285.28,474.18,291.42Z" style="fill:#263238;stroke:#263238;stroke-miterlimit:10"></path><line x1="474.18" y1="291.42" x2="469.12" y2="280.96" style="fill:none;stroke:#263238;stroke-miterlimit:10;stroke-width:0.5px"></line><line x1="455.5" y1="229.42" x2="455.5" y2="423.28" style="fill:none;stroke:#263238;stroke-miterlimit:10;stroke-width:2px"></line><line x1="455.66" y1="394.13" x2="449.24" y2="385.76" style="fill:none;stroke:#263238;stroke-miterlimit:10;stroke-width:2px"></line><path d="M451.19,388.27a8.21,8.21,0,0,0-2.23-6.42c-1.68-1.85-11-7-12.28-3.63C435.29,381.85,444.5,390.22,451.19,388.27Z" style="fill:#263238;stroke:#263238;stroke-miterlimit:10"></path><line x1="451.19" y1="388.27" x2="442.52" y2="381.52" style="fill:none;stroke:#263238;stroke-miterlimit:10;stroke-width:0.5px"></line><line x1="455.66" y1="357.7" x2="449.24" y2="349.33" style="fill:none;stroke:#263238;stroke-miterlimit:10;stroke-width:2px"></line><path d="M451.19,351.84a8.21,8.21,0,0,0-2.23-6.42c-1.68-1.85-11-7-12.28-3.63C435.29,345.42,444.5,353.79,451.19,351.84Z" style="fill:#263238;stroke:#263238;stroke-miterlimit:10"></path><line x1="451.19" y1="351.84" x2="442.52" y2="345.09" style="fill:none;stroke:#263238;stroke-miterlimit:10;stroke-width:0.5px"></line><line x1="455.66" y1="314.93" x2="449.24" y2="306.56" style="fill:none;stroke:#263238;stroke-miterlimit:10;stroke-width:2px"></line><path d="M451.19,309.07a8.21,8.21,0,0,0-2.23-6.42c-1.68-1.85-11-7-12.28-3.63C435.29,302.65,444.5,311,451.19,309.07Z" style="fill:#263238;stroke:#263238;stroke-miterlimit:10"></path><line x1="451.19" y1="309.07" x2="442.52" y2="302.32" style="fill:none;stroke:#263238;stroke-miterlimit:10;stroke-width:0.5px"></line><line x1="455.66" y1="286.45" x2="449.24" y2="278.08" style="fill:none;stroke:#263238;stroke-miterlimit:10;stroke-width:2px"></line><path d="M451.19,280.59a8.19,8.19,0,0,0-2.23-6.41c-1.68-1.85-11-7-12.28-3.63C435.29,274.18,444.5,282.55,451.19,280.59Z" style="fill:#263238;stroke:#263238;stroke-miterlimit:10"></path><line x1="451.19" y1="280.59" x2="442.52" y2="273.85" style="fill:none;stroke:#263238;stroke-miterlimit:10;stroke-width:0.5px"></line><line x1="455.66" y1="257.86" x2="449.24" y2="249.49" style="fill:none;stroke:#263238;stroke-miterlimit:10;stroke-width:2px"></line><path d="M451.19,252a8.21,8.21,0,0,0-2.23-6.42c-1.68-1.85-11-7-12.28-3.63C435.29,245.58,444.5,254,451.19,252Z" style="fill:#263238;stroke:#263238;stroke-miterlimit:10"></path><line x1="451.19" y1="252" x2="442.52" y2="245.25" style="fill:none;stroke:#263238;stroke-miterlimit:10;stroke-width:0.5px"></line><line x1="455.52" y1="405.25" x2="461.93" y2="396.88" style="fill:none;stroke:#263238;stroke-miterlimit:10;stroke-width:2px"></line><path d="M460,399.39a8.21,8.21,0,0,1,2.23-6.42c1.68-1.84,11-7,12.28-3.62C475.89,393,466.68,401.35,460,399.39Z" style="fill:#263238;stroke:#263238;stroke-miterlimit:10"></path><line x1="459.98" y1="399.39" x2="469.17" y2="392.28" style="fill:none;stroke:#263238;stroke-miterlimit:10;stroke-width:0.5px"></line><line x1="455.52" y1="347.31" x2="461.93" y2="338.94" style="fill:none;stroke:#263238;stroke-miterlimit:10;stroke-width:2px"></line><path d="M460,341.45a8.21,8.21,0,0,1,2.23-6.42c1.68-1.84,11-7,12.28-3.62C475.89,335,466.68,343.41,460,341.45Z" style="fill:#263238;stroke:#263238;stroke-miterlimit:10"></path><line x1="459.98" y1="341.45" x2="469.17" y2="334.34" style="fill:none;stroke:#263238;stroke-miterlimit:10;stroke-width:0.5px"></line><line x1="455.52" y1="318.72" x2="461.93" y2="310.34" style="fill:none;stroke:#263238;stroke-miterlimit:10;stroke-width:2px"></line><path d="M460,312.86a8.21,8.21,0,0,1,2.23-6.42c1.68-1.85,11-7,12.28-3.63C475.89,306.44,466.68,314.81,460,312.86Z" style="fill:#263238;stroke:#263238;stroke-miterlimit:10"></path><line x1="459.98" y1="312.86" x2="469.17" y2="305.74" style="fill:none;stroke:#263238;stroke-miterlimit:10;stroke-width:0.5px"></line><line x1="455.52" y1="280.92" x2="461.93" y2="272.55" style="fill:none;stroke:#263238;stroke-miterlimit:10;stroke-width:2px"></line><path d="M460,275.06a8.21,8.21,0,0,1,2.23-6.42c1.68-1.85,11-7,12.28-3.63C475.89,268.64,466.68,277,460,275.06Z" style="fill:#263238;stroke:#263238;stroke-miterlimit:10"></path><line x1="459.98" y1="275.06" x2="469.17" y2="267.95" style="fill:none;stroke:#263238;stroke-miterlimit:10;stroke-width:0.5px"></line><line x1="455.52" y1="251.2" x2="461.93" y2="242.83" style="fill:none;stroke:#263238;stroke-miterlimit:10;stroke-width:2px"></line><path d="M460,245.34a8.21,8.21,0,0,1,2.23-6.42c1.68-1.84,11-7,12.28-3.62C475.89,238.92,466.68,247.29,460,245.34Z" style="fill:#263238;stroke:#263238;stroke-miterlimit:10"></path><line x1="459.98" y1="245.34" x2="469.17" y2="238.23" style="fill:none;stroke:#263238;stroke-miterlimit:10;stroke-width:0.5px"></line><path d="M455.13,232.16a8.21,8.21,0,0,1,2.23-6.42c1.68-1.84,11-7,12.28-3.62C471,225.74,461.83,234.12,455.13,232.16Z" style="fill:#263238;stroke:#263238;stroke-miterlimit:10"></path><line x1="455.13" y1="232.16" x2="464.32" y2="225.05" style="fill:none;stroke:#263238;stroke-miterlimit:10;stroke-width:0.5px"></line><path d="M455.58,232.56a8.22,8.22,0,0,1-6.15-2.9c-1.66-1.86-5.77-11.66-2.32-12.59C450.86,216.07,458.22,226.1,455.58,232.56Z" style="fill:#263238;stroke:#263238;stroke-miterlimit:10"></path><line x1="455.58" y1="232.56" x2="449.47" y2="222.68" style="fill:none;stroke:#263238;stroke-miterlimit:10;stroke-width:0.5px"></line><polygon points="463.48 473.55 442.95 473.55 440.38 421.7 466.04 421.7 463.48 473.55" style="fill:#263238;stroke:#263238;stroke-miterlimit:10"></polygon></g><g id="freepik--Chair--inject-31"><g style="opacity:0.30000000000000004"><path d="M27.58,474.12l-.37,0a2.82,2.82,0,0,1-2.43-3.17l13-98.34a2.82,2.82,0,0,1,5.6.74l-13,98.34A2.82,2.82,0,0,1,27.58,474.12Z" style="fill:#fff;stroke:#000;stroke-linecap:round;stroke-linejoin:round"></path><path d="M92.84,474.12l-.37,0A2.84,2.84,0,0,1,90,470.93l13-98.34a2.82,2.82,0,0,1,5.6.74l-13,98.34A2.82,2.82,0,0,1,92.84,474.12Z" style="fill:#fff;stroke:#000;stroke-linecap:round;stroke-linejoin:round"></path><path d="M91,247H19.74l14.5,101.14a23.46,23.46,0,0,0,5.53,12.19l3.62,4.18,71.26-1.89h0A158.18,158.18,0,0,1,100,313.56Z" style="fill:#fff;stroke:#000;stroke-linecap:round;stroke-linejoin:round"></path><path d="M174.18,474.12l.38,0a2.84,2.84,0,0,0,2.43-3.17l-13-98.34a2.83,2.83,0,0,0-5.61.74l13,98.34A2.81,2.81,0,0,0,174.18,474.12Z" style="fill:#fff;stroke:#000;stroke-linecap:round;stroke-linejoin:round"></path><path d="M108.92,474.12l.38,0a2.84,2.84,0,0,0,2.43-3.17l-13-98.34a2.83,2.83,0,0,0-5.61.74l13,98.34A2.81,2.81,0,0,0,108.92,474.12Z" style="fill:#fff;stroke:#000;stroke-linecap:round;stroke-linejoin:round"></path><rect x="37.53" y="369.27" width="131.29" height="6.37" style="fill:#fff;stroke:#000;stroke-linecap:round;stroke-linejoin:round"></rect><rect x="99.14" y="369.27" width="69.69" height="6.37" style="fill:#fff;stroke:#000;stroke-linecap:round;stroke-linejoin:round"></rect><path d="M37.53,369.27s5.24-6.59,10.16-7,109.06,0,112.64,0,8.49,7,8.49,7Z" style="fill:#fff;stroke:#000;stroke-linecap:round;stroke-linejoin:round"></path></g></g><g id="freepik--Screen--inject-31"><rect x="76.99" y="21" width="220.16" height="407.16" style="fill:#fff"></rect><rect x="76.99" y="21" width="220.16" height="83.13" style="opacity:0.15"></rect><rect x="76.99" y="21" width="220.16" height="42.94" style="fill:#263238"></rect><rect x="213.43" y="129.51" width="71.25" height="25.58" rx="5.08" style="fill:#263238"></rect><path d="M227.88,145l-.35,1.82h-.93l1.73-9.05h1.46l1.73,9.05h-1l-.35-1.82Zm.13-.87h2l-1-5.22Z" style="fill:#263238"></path><path d="M234.44,137.73c1.41,0,2.05.85,2.05,2.25v4.57c0,1.38-.64,2.23-2.05,2.23h-2.12v-9.05Zm0,8.13c.73,0,1.08-.45,1.08-1.28v-4.65c0-.83-.35-1.28-1.09-1.28h-1.09v7.21Z" style="fill:#263238"></path><path d="M239.56,137.73c1.41,0,2.06.85,2.06,2.25v4.57c0,1.38-.65,2.23-2.06,2.23h-2.12v-9.05Zm0,8.13c.72,0,1.07-.45,1.07-1.28v-4.65c0-.83-.35-1.28-1.08-1.28h-1.09v7.21Z" style="fill:#263238"></path><path d="M247.66,142v.91h-2.08v3.92h-1v-9.05h3.6v.92h-2.59V142Z" style="fill:#263238"></path><path d="M251,137.73c1.42,0,2,.72,2,2.07v.73a1.7,1.7,0,0,1-1.13,1.87c.83.24,1.14.92,1.14,1.89v1.41a2.34,2.34,0,0,0,.18,1.08h-1a2.45,2.45,0,0,1-.17-1.1v-1.42c0-1-.48-1.34-1.32-1.34H250v3.86h-1v-9.05Zm-.26,4.27c.8,0,1.28-.26,1.28-1.24v-.87c0-.82-.29-1.24-1-1.24h-1V142Z" style="fill:#263238"></path><path d="M255.08,137.73v9.05h-1v-9.05Z" style="fill:#263238"></path><path d="M259.34,141.74v.9h-2.21v3.22h2.71v.92h-3.72v-9.05h3.72v.92h-2.71v3.09Z" style="fill:#263238"></path><path d="M261.67,146.78h-.91v-9.05h1.29l2.09,6.54v-6.54H265v9.05h-1l-2.32-7.32Z" style="fill:#263238"></path><path d="M268.19,137.73c1.41,0,2.06.85,2.06,2.25v4.57c0,1.38-.65,2.23-2.06,2.23h-2.12v-9.05Zm0,8.13c.72,0,1.07-.45,1.07-1.28v-4.65c0-.83-.35-1.28-1.08-1.28h-1.09v7.21Z" style="fill:#263238"></path><line x1="136.19" y1="177.76" x2="284.62" y2="177.76" style="fill:none;stroke:#263238;stroke-linecap:round;stroke-linejoin:round"></line><line x1="85.44" y1="177.76" x2="132.25" y2="177.76" style="fill:none;stroke:#263238;stroke-linecap:round;stroke-linejoin:round"></line><rect x="213.43" y="200.69" width="71.25" height="25.58" rx="5.08" style="fill:#263238"></rect><path d="M227.88,216.15l-.35,1.82h-.93l1.73-9.06h1.46l1.73,9.06h-1l-.35-1.82Zm.13-.87h2l-1-5.23Z" style="fill:#263238"></path><path d="M234.44,208.91c1.41,0,2.05.86,2.05,2.26v4.56c0,1.39-.64,2.24-2.05,2.24h-2.12v-9.06Zm0,8.14c.73,0,1.08-.45,1.08-1.28v-4.66c0-.82-.35-1.28-1.09-1.28h-1.09v7.22Z" style="fill:#263238"></path><path d="M239.56,208.91c1.41,0,2.06.86,2.06,2.26v4.56c0,1.39-.65,2.24-2.06,2.24h-2.12v-9.06Zm0,8.14c.72,0,1.07-.45,1.07-1.28v-4.66c0-.82-.35-1.28-1.08-1.28h-1.09v7.22Z" style="fill:#263238"></path><path d="M247.66,213.13v.92h-2.08V218h-1v-9.06h3.6v.92h-2.59v3.3Z" style="fill:#263238"></path><path d="M251,208.91c1.42,0,2,.73,2,2.07v.74c0,1-.35,1.62-1.13,1.86.83.25,1.14.92,1.14,1.89v1.41a2.39,2.39,0,0,0,.18,1.09h-1a2.45,2.45,0,0,1-.17-1.1v-1.42c0-1-.48-1.35-1.32-1.35H250V218h-1v-9.06Zm-.26,4.27c.8,0,1.28-.25,1.28-1.24v-.87c0-.81-.29-1.24-1-1.24h-1v3.35Z" style="fill:#263238"></path><path d="M255.08,208.91V218h-1v-9.06Z" style="fill:#263238"></path><path d="M259.34,212.93v.9h-2.21v3.22h2.71V218h-3.72v-9.06h3.72v.92h-2.71v3.1Z" style="fill:#263238"></path><path d="M261.67,218h-.91v-9.06h1.29l2.09,6.55v-6.55H265V218h-1l-2.32-7.32Z" style="fill:#263238"></path><path d="M268.19,208.91c1.41,0,2.06.86,2.06,2.26v4.56c0,1.39-.65,2.24-2.06,2.24h-2.12v-9.06Zm0,8.14c.72,0,1.07-.45,1.07-1.28v-4.66c0-.82-.35-1.28-1.08-1.28h-1.09v7.22Z" style="fill:#263238"></path><line x1="272.61" y1="248.94" x2="284.62" y2="248.94" style="fill:none;stroke:#263238;stroke-linecap:round;stroke-linejoin:round"></line><line x1="85.44" y1="248.94" x2="268.67" y2="248.94" style="fill:none;stroke:#263238;stroke-linecap:round;stroke-linejoin:round"></line><rect x="95.26" y="259.29" width="50.24" height="49.33" style="fill:#a1a1a1;stroke:#263238;stroke-linecap:round;stroke-linejoin:round"></rect><rect x="213.43" y="271.88" width="71.25" height="25.58" rx="5.08" style="fill:#263238"></rect><path d="M227.88,287.33l-.35,1.83h-.93l1.73-9.06h1.46l1.73,9.06h-1l-.35-1.83Zm.13-.86h2l-1-5.23Z" style="fill:#263238"></path><path d="M234.44,280.1c1.41,0,2.05.85,2.05,2.25v4.57c0,1.38-.64,2.24-2.05,2.24h-2.12V280.1Zm0,8.14c.73,0,1.08-.46,1.08-1.28V282.3c0-.83-.35-1.28-1.09-1.28h-1.09v7.22Z" style="fill:#263238"></path><path d="M239.56,280.1c1.41,0,2.06.85,2.06,2.25v4.57c0,1.38-.65,2.24-2.06,2.24h-2.12V280.1Zm0,8.14c.72,0,1.07-.46,1.07-1.28V282.3c0-.83-.35-1.28-1.08-1.28h-1.09v7.22Z" style="fill:#263238"></path><path d="M247.66,284.32v.92h-2.08v3.92h-1V280.1h3.6V281h-2.59v3.3Z" style="fill:#263238"></path><path d="M251,280.1c1.42,0,2,.73,2,2.07v.74c0,1-.35,1.62-1.13,1.86.83.25,1.14.92,1.14,1.89v1.41a2.39,2.39,0,0,0,.18,1.09h-1a2.45,2.45,0,0,1-.17-1.1v-1.43c0-1-.48-1.34-1.32-1.34H250v3.87h-1V280.1Zm-.26,4.27c.8,0,1.28-.26,1.28-1.24v-.87c0-.81-.29-1.24-1-1.24h-1v3.35Z" style="fill:#263238"></path><path d="M255.08,280.1v9.06h-1V280.1Z" style="fill:#263238"></path><path d="M259.34,284.11V285h-2.21v3.22h2.71v.92h-3.72V280.1h3.72V281h-2.71v3.09Z" style="fill:#263238"></path><path d="M261.67,289.16h-.91V280.1h1.29l2.09,6.55V280.1H265v9.06h-1l-2.32-7.33Z" style="fill:#263238"></path><path d="M268.19,280.1c1.41,0,2.06.85,2.06,2.25v4.57c0,1.38-.65,2.24-2.06,2.24h-2.12V280.1Zm0,8.14c.72,0,1.07-.46,1.07-1.28V282.3c0-.83-.35-1.28-1.08-1.28h-1.09v7.22Z" style="fill:#263238"></path><line x1="163.77" y1="320.13" x2="284.62" y2="320.13" style="fill:none;stroke:#263238;stroke-linecap:round;stroke-linejoin:round"></line><line x1="85.44" y1="320.13" x2="158.35" y2="320.13" style="fill:none;stroke:#263238;stroke-linecap:round;stroke-linejoin:round"></line><rect x="95.26" y="330.48" width="50.24" height="49.32" style="fill:#263238;stroke:#263238;stroke-linecap:round;stroke-linejoin:round"></rect><rect x="213.43" y="343.07" width="71.25" height="25.58" rx="5.08" style="fill:#263238"></rect><path d="M227.88,358.52l-.35,1.82h-.93l1.73-9h1.46l1.73,9h-1l-.35-1.82Zm.13-.87h2l-1-5.22Z" style="fill:#263238"></path><path d="M234.44,351.29c1.41,0,2.05.85,2.05,2.25v4.57c0,1.38-.64,2.23-2.05,2.23h-2.12v-9Zm0,8.13c.73,0,1.08-.45,1.08-1.28v-4.65c0-.83-.35-1.28-1.09-1.28h-1.09v7.21Z" style="fill:#263238"></path><path d="M239.56,351.29c1.41,0,2.06.85,2.06,2.25v4.57c0,1.38-.65,2.23-2.06,2.23h-2.12v-9Zm0,8.13c.72,0,1.07-.45,1.07-1.28v-4.65c0-.83-.35-1.28-1.08-1.28h-1.09v7.21Z" style="fill:#263238"></path><path d="M247.66,355.51v.91h-2.08v3.92h-1v-9h3.6v.92h-2.59v3.3Z" style="fill:#263238"></path><path d="M251,351.29c1.42,0,2,.72,2,2.07v.73a1.7,1.7,0,0,1-1.13,1.87c.83.24,1.14.92,1.14,1.89v1.41a2.34,2.34,0,0,0,.18,1.08h-1a2.45,2.45,0,0,1-.17-1.1v-1.42c0-1-.48-1.34-1.32-1.34H250v3.86h-1v-9Zm-.26,4.27c.8,0,1.28-.26,1.28-1.24v-.87c0-.82-.29-1.24-1-1.24h-1v3.35Z" style="fill:#263238"></path><path d="M255.08,351.29v9h-1v-9Z" style="fill:#263238"></path><path d="M259.34,355.3v.9h-2.21v3.22h2.71v.92h-3.72v-9h3.72v.92h-2.71v3.09Z" style="fill:#263238"></path><path d="M261.67,360.34h-.91v-9h1.29l2.09,6.54v-6.54H265v9h-1L261.67,353Z" style="fill:#263238"></path><path d="M268.19,351.29c1.41,0,2.06.85,2.06,2.25v4.57c0,1.38-.65,2.23-2.06,2.23h-2.12v-9Zm0,8.13c.72,0,1.07-.45,1.07-1.28v-4.65c0-.83-.35-1.28-1.08-1.28h-1.09v7.21Z" style="fill:#263238"></path><line x1="180.02" y1="391.32" x2="284.62" y2="391.32" style="fill:none;stroke:#263238;stroke-linecap:round;stroke-linejoin:round"></line><line x1="85.44" y1="391.32" x2="175.09" y2="391.32" style="fill:none;stroke:#263238;stroke-linecap:round;stroke-linejoin:round"></line><rect x="95.26" y="116.92" width="50.24" height="49.33" style="fill:#263238;stroke:#263238;stroke-linecap:round;stroke-linejoin:round"></rect><polygon points="133.59 152.16 144.93 152.45 144.93 166.25 95.26 166.25 119.83 154.65 133.59 152.16" style="fill:#a1a1a1;stroke:#263238;stroke-linecap:round;stroke-linejoin:round"></polygon><path d="M131,145.41,135.33,156s-1.32,4.94-5.27,6.59-5.94,1.32-9.24-.66l-1-7.25S130.39,152.34,131,145.41Z" style="fill:#fff;stroke:#263238;stroke-linecap:round;stroke-linejoin:round"></path><path d="M114.88,123.64s-8.24,1.32-9.23,8.58,5.94,22.43,13.85,24.74,12.2-4.29,12.86-9.57c1.2-9.53-3-21.11-6.92-23.09S114.88,123.64,114.88,123.64Z" style="fill:#fff;stroke:#263238;stroke-linecap:round;stroke-linejoin:round"></path><path d="M124.45,128.59l-9.9,36.94H96.08s5-32.32,10.89-39.25,16.49-5.93,20.45-4S134,134.86,134,134.86,131.7,139.48,124.45,128.59Z" style="fill:#263238"></path><path d="M129.73,135.85s0-4,2.63-3,3.63,8.25,2,9.89-3.63-1.31-3.63-1.31" style="fill:#fff;stroke:#263238;stroke-linecap:round;stroke-linejoin:round"></path><path d="M124.39,140.62c.34.94.2,1.86-.31,2s-1.21-.42-1.55-1.36-.21-1.86.31-2S124,139.68,124.39,140.62Z" style="fill:#263238"></path><path d="M120.16,151.68s4.29,2,6.93-5" style="fill:none;stroke:#263238;stroke-linecap:round;stroke-linejoin:round"></path><rect x="95.26" y="188.11" width="50.24" height="49.33" style="fill:#263238;stroke:#263238;stroke-linecap:round;stroke-linejoin:round"></rect><path d="M123.91,199s-7.19,5.75-7.55,7.19a18.39,18.39,0,0,0-.36,3.59l-9.34,3.6,2.51,5s-3.59,11.87-3.23,13,7.55,1.07,7.55,1.07l1.08,5h20.49l-1.44-4.68s11.51-9.34,11.87-10.42,0-20.14,0-20.14-19.42-12.58-23.37-9.7S123.91,199,123.91,199Z" style="fill:#fff;stroke:#263238;stroke-linecap:round;stroke-linejoin:round"></path><path d="M117.08,205.08s-5.75,1.44-4.31,6.47c.57,2,4,2.88,6.11,2.88s4-4,4-4S123.19,205.44,117.08,205.08Z" style="fill:#263238"></path><polygon points="122.83 210.47 133.98 219.46 130.75 223.06 129.31 222.7 129.67 219.46 118.88 214.43 122.83 210.47" style="fill:#fff;stroke:#263238;stroke-linecap:round;stroke-linejoin:round"></polygon><path d="M125,219.46s5-3.23,4.68,0-1.08,6.83-4.32,7.55-3.23-2.52-3.23-2.52" style="fill:#fff;stroke:#263238;stroke-linecap:round;stroke-linejoin:round"></path><path d="M123.91,199l8.27,6.83s-6.83,1.44-6.47,3.59,3.24,2.88,3.24,2.88-5.76,5-3.6,5.75a10.49,10.49,0,0,1,4,2.88s-4.32,8.27-.72,10.07a22.64,22.64,0,0,0,6.83,2.15l10.07-10.78V202.2s-19.06-13.66-24.09-11.5S120.68,197.53,123.91,199Z" style="fill:#263238"></path><path d="M109.89,222s5,1.08,7.19-1.8" style="fill:#fff;stroke:#263238;stroke-linecap:round;stroke-linejoin:round"></path><polygon points="121.31 286.95 95.2 294.38 95.2 308.62 145.2 308.62 145.2 297.62 121.31 286.95" style="fill:#263238;stroke:#263238;stroke-miterlimit:10"></polygon><path d="M125,265.62s-7.67-3-13,1-5.34,14-4.67,18.33,4.33,10.67,10.33,12.34,16.67-5.33,16.67-10.67S136,265.62,125,265.62Z" style="fill:#fff;stroke:#263238;stroke-miterlimit:10"></path><path d="M114.64,262s-9.75,4.75-10,8.25,1.25,10-.75,11-5.4,1.55-5.5,4.25c-.25,7,3.5,8,9.25,8.25s6-2.26,5-6.5-3.75-13.25,2.5-15,11-3.75,11.75-4.75,1.79,5.25,3.5,7.5c3.25,4.25,3,10.5,2.5,12.5s-2.24,5.48-.25,6.75c5.51,3.5,8.51-1,9-5s-5.5-7.5-5.5-7.5,4-11.25-.26-15.25-9.5-6.25-11.75-6S114.64,262,114.64,262Z" style="fill:#263238"></path><path d="M100.64,308.62H111c1.27-2.15,5.22-9,4.94-11-.22-1.5-2.62-4.36-4.32-6.22.47-1.24,1.22-3.41,1-4.11-.33-1-2.66-3-2.66-3-1-1-3-.34-3-.34s-4.67,5-4.67,6.67S110,299,110,299l-8,9Z" style="fill:#fff;stroke:#263238;stroke-linecap:round;stroke-linejoin:round"></path><line x1="111.66" y1="291.4" x2="109.31" y2="288.95" style="fill:#fff;stroke:#263238;stroke-miterlimit:10"></line><path d="M138,308.62h-10.4c-1.27-2.15-5.21-9-4.93-11,.21-1.5,2.61-4.36,4.31-6.22-.46-1.24-1.21-3.41-1-4.11.33-1,2.67-3,2.67-3,1-1,3-.34,3-.34s4.67,5,4.67,6.67-7.67,8.33-7.67,8.33l8,9Z" style="fill:#fff;stroke:#263238;stroke-linecap:round;stroke-linejoin:round"></path><line x1="126.97" y1="291.4" x2="129.32" y2="288.95" style="fill:#fff;stroke:#263238;stroke-miterlimit:10"></line><path d="M113.89,278.79s2.75-1.25,4.75-.25" style="fill:#fff;stroke:#263238;stroke-miterlimit:10"></path><path d="M123.64,278.29s3.5-1,4.5.25" style="fill:#fff;stroke:#263238;stroke-miterlimit:10"></path><path d="M123.39,282a3.63,3.63,0,0,1-4.5.75" style="fill:#fff;stroke:#263238;stroke-miterlimit:10"></path><path d="M115.89,285.79s2.25,2.5,4.75,2.5,4.75-2.75,4.75-2.75" style="fill:#fff;stroke:#263238;stroke-miterlimit:10"></path><path d="M113.39,276.54s2.5-3.5,5.5-2" style="fill:#fff;stroke:#263238;stroke-miterlimit:10"></path><path d="M123.64,275s2.5-2,4.5,1.25" style="fill:#fff;stroke:#263238;stroke-miterlimit:10"></path><path d="M145.5,378.14v1.67H95.26v-3.23l0-.05c1.26-2,14.1-5,14.1-5l-.51-4.78h2.77l.76-3-1.51-4.79a9.28,9.28,0,0,1-3.27-5c-1-3.52,1.25-3.78,1.25-3.78a30.22,30.22,0,0,1,0-7.8c.51-5.28,11.33-8.05,11.33-8.05,2.52-1.51,11.33-.76,13.35,2s-4.54,0-4.54,0l1.52,2.52c1.51,2.51-1,6.79-1,6.79s3.28,11.33,1.77,14.1-6,3.53-6,3.53l.76,4.53,2.77.5L129,371s13.6,4.29,15.61,6.3Z" style="fill:#fff;stroke:#263238;stroke-miterlimit:10"></path><line x1="152.98" y1="136.91" x2="194.14" y2="136.91" style="fill:none;stroke:#263238;stroke-linecap:round;stroke-linejoin:round;stroke-width:3px"></line><line x1="152.98" y1="147.03" x2="207.63" y2="147.03" style="fill:none;stroke:#263238;stroke-linecap:round;stroke-linejoin:round"></line><line x1="152.98" y1="203.04" x2="194.14" y2="203.04" style="fill:none;stroke:#263238;stroke-linecap:round;stroke-linejoin:round;stroke-width:3px"></line><line x1="152.98" y1="213.16" x2="207.63" y2="213.16" style="fill:none;stroke:#263238;stroke-linecap:round;stroke-linejoin:round"></line><line x1="152.98" y1="275.24" x2="194.14" y2="275.24" style="fill:none;stroke:#263238;stroke-linecap:round;stroke-linejoin:round;stroke-width:3px"></line><line x1="152.98" y1="285.36" x2="207.63" y2="285.36" style="fill:none;stroke:#263238;stroke-linecap:round;stroke-linejoin:round"></line><line x1="152.98" y1="344.74" x2="194.14" y2="344.74" style="fill:none;stroke:#263238;stroke-linecap:round;stroke-linejoin:round;stroke-width:3px"></line><line x1="152.98" y1="354.86" x2="207.63" y2="354.86" style="fill:none;stroke:#263238;stroke-linecap:round;stroke-linejoin:round"></line><line x1="260.89" y1="402.04" x2="282.47" y2="402.04" style="fill:none;stroke:#263238;stroke-linecap:round;stroke-linejoin:round"></line><line x1="260.89" y1="409.29" x2="282.47" y2="409.29" style="fill:none;stroke:#263238;stroke-linecap:round;stroke-linejoin:round"></line><line x1="260.89" y1="416.54" x2="282.47" y2="416.54" style="fill:none;stroke:#263238;stroke-linecap:round;stroke-linejoin:round"></line><path d="M179.28,26.16v.19a1.48,1.48,0,0,1-.92,1.55,1.5,1.5,0,0,1,.92,1.57v.58c0,1.15-.54,1.91-1.7,1.91s-1.7-.76-1.7-1.91v-.52h.79v.57c0,.68.28,1.09.88,1.09s.89-.4.89-1.16v-.59c0-.74-.31-1.1-.95-1.12H177v-.75h.49a.91.91,0,0,0,.91-1v-.34c0-.78-.27-1.18-.89-1.18s-.88.42-.88,1.1v.39h-.79v-.34c0-1.16.54-1.9,1.7-1.9S179.28,25,179.28,26.16Z" style="fill:#fff"></path><path d="M180.91,26.73v1h-.81v-1Zm0,4.1v1.05h-.81V30.83Z" style="fill:#fff"></path><path d="M185.17,26.17c0,2.27-2.56,3.09-2.57,4.83v.11h2.48v.77h-3.31v-.65c0-2.43,2.56-2.91,2.56-5,0-.78-.26-1.19-.89-1.19s-.88.45-.88,1.11v.67h-.79v-.61c0-1.16.53-1.92,1.69-1.92S185.17,25,185.17,26.17Z" style="fill:#fff"></path><path d="M185.88,26.16c0-1.16.57-1.9,1.73-1.9s1.73.74,1.73,1.9v3.89c0,1.15-.57,1.91-1.73,1.91s-1.73-.76-1.73-1.91Zm.83,3.94c0,.68.29,1.09.9,1.09s.89-.41.89-1.09v-4c0-.69-.28-1.1-.89-1.1s-.9.41-.9,1.1Z" style="fill:#fff"></path><path d="M193.46,24.33c1.19,0,1.7.7,1.7,1.85v.9c0,1.2-.56,1.82-1.76,1.82h-.75v3h-.84V24.33Zm-.06,3.82c.62,0,.93-.29.93-1v-1c0-.69-.25-1-.87-1h-.81v3Z" style="fill:#fff"></path><path d="M198.63,31.87h-.81l-1.25-6v6h-.73V24.33H197l1.24,6,1.2-6h1.17v7.55h-.79V25.81Z" style="fill:#fff"></path><path d="M257,26.12v.24a1.48,1.48,0,0,1-.86,1.55,1.54,1.54,0,0,1,.86,1.6v.56a1.78,1.78,0,1,1-3.56,0v-.56a1.53,1.53,0,0,1,.87-1.6,1.47,1.47,0,0,1-.87-1.55v-.24a1.78,1.78,0,1,1,3.56,0Zm-2.73,0v.36c0,.73.36,1.06.95,1.06s.95-.33.95-1.06v-.36c0-.78-.36-1.14-.95-1.14S254.24,25.37,254.24,26.15Zm0,3.26v.64c0,.77.35,1.14.95,1.14s.94-.37.95-1.14v-.64c0-.73-.32-1.09-.95-1.09S254.24,28.68,254.24,29.41Z" style="fill:#fff"></path><path d="M258.58,27.41a1.2,1.2,0,0,1,1.12-.63c1,0,1.4.71,1.4,1.79v1.48c0,1.15-.55,1.91-1.7,1.91s-1.7-.76-1.7-1.91v-.51h.79v.56c0,.68.28,1.09.88,1.09s.89-.41.89-1.09V28.64c0-.68-.28-1.09-.89-1.09a.82.82,0,0,0-.85.8v.18h-.78l.2-4.2h3v.76H258.7Z" style="fill:#fff"></path><path d="M264,25.51v2.38c0,.73-.34,1.22-1.07,1.22s-1.08-.49-1.08-1.22V25.51c0-.72.34-1.22,1.08-1.22S264,24.79,264,25.51Zm-1.61,0v2.45c0,.41.15.68.54.68s.53-.27.53-.68V25.48c0-.41-.16-.69-.53-.69S262.41,25.07,262.41,25.48Zm4.1-1.15-3,7.55H263l3-7.55Zm1.22,4v2.37c0,.74-.33,1.22-1.08,1.22s-1.07-.48-1.07-1.22V28.32c0-.72.34-1.2,1.07-1.2S267.73,27.6,267.73,28.32Zm-1.62,0v2.45c0,.41.17.69.54.69s.54-.28.54-.69V28.29c0-.41-.16-.68-.54-.68S266.11,27.88,266.11,28.29Z" style="fill:#fff"></path><path d="M160.15,51.42v1.17H157.5v5h-1.29V46.05h4.58v1.17H157.5v4.2ZM105,47.25l-1.86-1.86L97,51.54l0,0,0,.05,6.14,6.15L105,55.92l-4.34-4.34Z" style="fill:#fff"></path><path d="M163.09,46.05V57.57h-1.28V46.05Z" style="fill:#fff"></path><path d="M165.55,57.57H164.4V46.05H166l2.67,8.33V46.05h1.14V57.57h-1.34l-2.94-9.31Z" style="fill:#fff"></path><path d="M173.84,46.05c1.8,0,2.62,1.09,2.62,2.86v5.82c0,1.76-.82,2.84-2.62,2.84h-2.69V46.05Zm0,10.35c.92,0,1.36-.57,1.36-1.63V48.85c0-1.05-.44-1.63-1.38-1.63h-1.38V56.4Z" style="fill:#fff"></path><path d="M184.15,51.42v1.17H181.5v5h-1.28V46.05h4.57v1.17H181.5v4.2Z" style="fill:#fff"></path><path d="M188.38,46.05c1.81,0,2.57.92,2.57,2.63v.94c0,1.27-.45,2.06-1.43,2.37,1,.32,1.45,1.17,1.45,2.41v1.79a2.8,2.8,0,0,0,.23,1.38h-1.3a3,3,0,0,1-.22-1.4V54.36c0-1.3-.61-1.71-1.68-1.71h-.9v4.92h-1.29V46.05Zm-.33,5.43c1,0,1.63-.33,1.63-1.58V48.8c0-1-.38-1.58-1.33-1.58H187.1v4.26Z" style="fill:#fff"></path><path d="M193.59,46.05V57.57H192.3V46.05Z" style="fill:#fff"></path><path d="M199,51.15v1.16h-2.81V56.4h3.45v1.17H194.9V46.05h4.74v1.17h-3.45v3.93Z" style="fill:#fff"></path><path d="M202,57.57h-1.15V46.05h1.63l2.67,8.33V46.05h1.13V57.57h-1.33L202,48.26Z" style="fill:#fff"></path><path d="M210.26,46.05c1.8,0,2.62,1.09,2.62,2.86v5.82c0,1.76-.82,2.84-2.62,2.84h-2.7V46.05Zm0,10.35c.92,0,1.36-.57,1.36-1.63V48.85c0-1.05-.44-1.63-1.38-1.63h-1.38V56.4Z" style="fill:#fff"></path><path d="M219.07,48.82v.31h-1.22v-.38c0-1-.39-1.65-1.32-1.65s-1.31.61-1.31,1.63c0,2.59,3.87,2.84,3.87,6.08,0,1.74-.84,2.88-2.61,2.88s-2.58-1.14-2.58-2.88v-.66h1.2v.72c0,1,.43,1.65,1.35,1.65s1.35-.61,1.35-1.65c0-2.56-3.85-2.81-3.85-6,0-1.78.82-2.88,2.55-2.88S219.07,47.07,219.07,48.82Z" style="fill:#fff"></path><path d="M272.18,24.72v7.19h16.54V24.72Zm15.29,6.65H273.42v-6.1h14.05Z" style="fill:#fff"></path><rect x="272.18" y="24.72" width="12.73" height="7.19" style="fill:#fff"></rect><rect x="288.46" y="27.05" width="1.38" height="2.57" style="fill:#fff"></rect><path d="M113.37,89.7v.6h-18V89.13c.46-.73,5.06-1.81,5.06-1.81l-.18-1.72h1l.27-1.08L101,82.8A3.32,3.32,0,0,1,99.77,81c-.36-1.26.45-1.35.45-1.35a10.82,10.82,0,0,1,0-2.8c.18-1.9,4.07-2.89,4.07-2.89.9-.55,4.07-.27,4.79.72s-1.63,0-1.63,0l.55.9c.54.9-.37,2.44-.37,2.44s1.18,4.07.64,5.06a3.4,3.4,0,0,1-2.17,1.27l.27,1.62,1,.19.09,1s4.88,1.53,5.61,2.26C113.16,89.51,113.27,89.61,113.37,89.7Z" style="fill:#263238"></path><line x1="128.59" y1="67.02" x2="128.59" y2="99.38" style="fill:none;stroke:#263238;stroke-linecap:round;stroke-linejoin:round"></line><line x1="179.64" y1="67.02" x2="179.64" y2="99.38" style="fill:none;stroke:#263238;stroke-linecap:round;stroke-linejoin:round"></line><line x1="230.69" y1="67.02" x2="230.69" y2="99.38" style="fill:none;stroke:#263238;stroke-linecap:round;stroke-linejoin:round"></line><line x1="281.75" y1="67.02" x2="281.75" y2="99.38" style="fill:none;stroke:#263238;stroke-linecap:round;stroke-linejoin:round"></line><line x1="90.48" y1="97.94" x2="118.52" y2="97.94" style="fill:none;stroke:#263238;stroke-linecap:round;stroke-linejoin:round"></line><line x1="139.37" y1="97.94" x2="167.42" y2="97.94" style="fill:none;stroke:#263238;stroke-linecap:round;stroke-linejoin:round"></line><line x1="189.71" y1="97.94" x2="217.75" y2="97.94" style="fill:none;stroke:#263238;stroke-linecap:round;stroke-linejoin:round"></line><line x1="240.04" y1="97.94" x2="268.08" y2="97.94" style="fill:none;stroke:#263238;stroke-linecap:round;stroke-linejoin:round"></line><circle cx="151.42" cy="79.06" r="7.55" style="fill:none;stroke:#263238;stroke-linecap:round;stroke-linejoin:round;stroke-width:3px"></circle><line x1="157.35" y1="84.46" x2="164.9" y2="90.39" style="fill:none;stroke:#263238;stroke-linecap:round;stroke-linejoin:round;stroke-width:3px"></line><path d="M205.05,89.7v.6H187V89.13c.46-.73,5.06-1.81,5.06-1.81l-.18-1.72h1l.27-1.08-.54-1.72A3.32,3.32,0,0,1,191.45,81c-.36-1.26.45-1.35.45-1.35a10.82,10.82,0,0,1,0-2.8C192.08,74.94,196,74,196,74c.9-.55,4.07-.27,4.79.72s-1.63,0-1.63,0l.55.9c.54.9-.37,2.44-.37,2.44s1.18,4.07.64,5.06a3.44,3.44,0,0,1-2.18,1.27l.28,1.62,1,.19.09,1s4.88,1.53,5.61,2.26C204.84,89.51,205,89.61,205.05,89.7Z" style="fill:#263238"></path><path d="M215.83,89.7v.6h-18V89.13c.45-.73,5.06-1.81,5.06-1.81l-.18-1.72h1l.27-1.08-.54-1.72A3.33,3.33,0,0,1,202.24,81c-.37-1.26.45-1.35.45-1.35a10.82,10.82,0,0,1,0-2.8c.18-1.9,4.07-2.89,4.07-2.89.9-.55,4.06-.27,4.79.72s-1.63,0-1.63,0l.54.9c.54.9-.36,2.44-.36,2.44s1.17,4.07.63,5.06a3.4,3.4,0,0,1-2.17,1.27l.27,1.62,1,.19.09,1s4.88,1.53,5.6,2.26Z" style="fill:#263238"></path><rect x="204.81" y="67.2" width="18.34" height="11.86" style="fill:#787878"></rect><polyline points="215.05 76.91 212.36 82.84 219.91 76.91" style="fill:#787878"></polyline><rect x="246.87" y="72.59" width="13.48" height="17.8" style="fill:none;stroke:#263238;stroke-linecap:round;stroke-linejoin:round"></rect><line x1="262.07" y1="72.91" x2="262.07" y2="77.15" style="fill:none;stroke:#263238;stroke-linecap:round;stroke-linejoin:round"></line><line x1="262.07" y1="79.06" x2="262.07" y2="83.29" style="fill:none;stroke:#263238;stroke-linecap:round;stroke-linejoin:round"></line><line x1="262.07" y1="85.2" x2="262.07" y2="89.43" style="fill:none;stroke:#263238;stroke-linecap:round;stroke-linejoin:round"></line><rect x="76.99" y="21" width="220.16" height="407.16" style="fill:none;stroke:#263238;stroke-miterlimit:10"></rect></g><g id="freepik--Graphics--inject-31"><g style="opacity:0.30000000000000004"><rect x="389.4" y="31.7" width="76.96" height="75.56" style="fill:none;stroke:#000;stroke-linecap:round;stroke-linejoin:round"></rect><path d="M466.36,104.7v2.56h-77v-4.94a.35.35,0,0,0,.05-.08c1.94-3.09,21.6-7.72,21.6-7.72l-.78-7.32h4.25l1.15-4.63-2.31-7.33a14.21,14.21,0,0,1-5-7.72c-1.56-5.38,1.91-5.78,1.91-5.78s-.76-3.85,0-12,17.37-12.34,17.37-12.34c3.85-2.31,17.35-1.15,20.43,3.09s-6.95,0-6.95,0l2.33,3.85c2.31,3.85-1.55,10.41-1.55,10.41s5,17.35,2.71,21.59-9.27,5.41-9.27,5.41l1.15,6.94,4.25.77.38,4.23S462,100.3,465,103.39Z" style="fill:none;stroke:#000;stroke-miterlimit:10"></path></g><g style="opacity:0.30000000000000004"><circle cx="457.17" cy="127" r="14.94"></circle><line x1="457.17" y1="118.6" x2="457.17" y2="135.4" style="fill:none;stroke:#fff;stroke-miterlimit:10"></line><line x1="465.57" y1="127" x2="448.77" y2="127" style="fill:none;stroke:#fff;stroke-miterlimit:10"></line></g><g style="opacity:0.30000000000000004"><circle cx="317.17" cy="379" r="14.94"></circle><line x1="317.17" y1="370.6" x2="317.17" y2="387.4" style="fill:none;stroke:#fff;stroke-miterlimit:10"></line><line x1="325.57" y1="379" x2="308.77" y2="379" style="fill:none;stroke:#fff;stroke-miterlimit:10"></line></g><g style="opacity:0.30000000000000004"><rect x="23.51" y="102.4" width="32.75" height="32.15" style="fill:none;stroke:#000;stroke-linecap:round;stroke-linejoin:round"></rect><path d="M56.26,133.46v1.09H23.51v-2.1s0,0,0,0c.83-1.31,9.19-3.28,9.19-3.28L32.39,126H34.2l.49-2-1-3.12a6.07,6.07,0,0,1-2.13-3.29c-.66-2.29.81-2.46.81-2.46a20,20,0,0,1,0-5.08c.33-3.44,7.39-5.25,7.39-5.25,1.64-1,7.38-.49,8.7,1.31s-3,0-3,0l1,1.64c1,1.64-.66,4.43-.66,4.43S48,119.61,47,121.42s-3.94,2.3-3.94,2.3l.49,3,1.8.33.17,1.8s8.86,2.79,10.18,4.11Z" style="fill:none;stroke:#000;stroke-miterlimit:10"></path></g><g style="opacity:0.30000000000000004"><circle cx="50.52" cy="149.42" r="9.75"></circle><line x1="50.52" y1="143.93" x2="50.52" y2="154.9" style="fill:none;stroke:#fff;stroke-miterlimit:10"></line><line x1="56" y1="149.42" x2="45.03" y2="149.42" style="fill:none;stroke:#fff;stroke-miterlimit:10"></line></g><g style="opacity:0.30000000000000004"><rect x="311.51" y="53.98" width="32.75" height="32.15" style="fill:none;stroke:#000;stroke-linecap:round;stroke-linejoin:round"></rect><path d="M344.26,85v1.09H311.51V84a.05.05,0,0,0,0,0c.83-1.31,9.19-3.28,9.19-3.28l-.33-3.11h1.81l.49-2-1-3.12a6.07,6.07,0,0,1-2.13-3.29c-.66-2.29.81-2.46.81-2.46a20,20,0,0,1,0-5.08c.33-3.44,7.39-5.25,7.39-5.25,1.64-1,7.38-.49,8.7,1.31s-3,0-3,0l1,1.64c1,1.64-.66,4.43-.66,4.43S336,71.19,335,73s-3.94,2.3-3.94,2.3l.49,3,1.8.33.17,1.8s8.86,2.79,10.18,4.11Z" style="fill:none;stroke:#000;stroke-miterlimit:10"></path></g><g style="opacity:0.30000000000000004"><path d="M377.12,32.92H351.65a3.33,3.33,0,0,0-3.33,3.33v17a3.33,3.33,0,0,0,3.33,3.33h.24l-4.18,7.88,8.72-7.88h20.69a3.33,3.33,0,0,0,3.33-3.33v-17A3.33,3.33,0,0,0,377.12,32.92Z"></path><path d="M359.31,39.16a5.42,5.42,0,0,1-2.5.77V38.28a3.11,3.11,0,0,0,3.1-2.4h1.39V54h-2Z" style="fill:#fff"></path><path d="M366.37,43.24a2.9,2.9,0,0,1,2.68-1.5c2.33,0,3.36,1.7,3.36,4.29v3.53c0,2.77-1.32,4.58-4.08,4.58s-4.06-1.81-4.06-4.58V48.35h1.89v1.34c0,1.63.67,2.61,2.12,2.61s2.11-1,2.11-2.61V46.18c0-1.63-.67-2.61-2.11-2.61a2,2,0,0,0-2,1.94v.41h-1.89l.49-10H372v1.81h-5.32Z" style="fill:#fff"></path></g></g><g id="freepik--Character--inject-31"><polygon points="394.14 436.83 400.41 448.17 412.72 437.07 405.96 426.94 394.14 436.83" style="fill:#fff;stroke:#263238;stroke-linecap:round;stroke-linejoin:round"></polygon><polygon points="342.75 428.52 339.37 442.76 353.13 442.76 357.23 429.01 342.75 428.52" style="fill:#fff;stroke:#263238;stroke-linecap:round;stroke-linejoin:round"></polygon><path d="M356.26,438.17l-19.06.25-1.2,9.65s-8.45,7.72-11.34,9.89-8.69,4.1-8.69,4.1-5.55,1.21-5.07,3.14-1.2,5.79.49,6.27,10.61,2.65,15.68,2.65a18.52,18.52,0,0,0,11.58-4.58,27.46,27.46,0,0,1,4.58-3.38v6.51h10.62s1.69-10.37,1.69-14.71-1.69-9.17-1.69-9.89S356.26,438.17,356.26,438.17Z" style="fill:#263238;stroke:#263238;stroke-linecap:round;stroke-linejoin:round"></path><path d="M410.65,430,394.49,441.3s4.84,4.79,4.36,8.17-7.36,17-7.36,17-5.31,3.62-5.79,5.06-1.69,2.17,2.17,2.66,13.16-.46,17.7-1.88c2.9-.91,7-2.61,7.26-4.54s.13-6.85,1.58-9a19.36,19.36,0,0,1,4.1-4.11l4.1,7.24,5.07-3.37s-3.86-10.86-5.79-15.93-8.15-5.68-8.15-5.68Z" style="fill:#263238;stroke:#263238;stroke-linecap:round;stroke-linejoin:round"></path><polygon points="279.17 205.5 298.17 238.83 311.67 243 293.67 205.17 279.17 205.5" style="fill:#263238;stroke:#263238;stroke-linecap:round;stroke-linejoin:round"></polygon><path d="M286.45,227.89s6.56,14,8.41,16,17.31,14.11,22.85,16.8,12.27,5.72,16,5.72,5-1,5-1,3.53-47.73,3.86-48.74-12.43-8.06-12.43-8.06a108.78,108.78,0,0,0-2,17c-.17,8.07-1.85,21.34-1.85,21.34s-8.57-1-17.14-2.18-9.07-4-9.24-6.22,1.17-7.06,1.17-7.06,2.19-3.19,2.53-5-1.35-1.68-1.35-1.68,1.35-3.53.51-4.54a1.31,1.31,0,0,0-1.69-.5,6.61,6.61,0,0,0-.68-3.19c-.41-.61-.68-.63-1.83-.51,0,0-.51-2.36-2-1.35s-9.41,8.58-10.09,10.26A3.92,3.92,0,0,0,286.45,227.89Z" style="fill:#fff;stroke:#263238;stroke-linecap:round;stroke-linejoin:round"></path><path d="M298.56,216s-8.12,8.52-10.53,12.65" style="fill:none;stroke:#263238;stroke-linecap:round;stroke-linejoin:round"></path><path d="M301.07,219.66s-3.91,4.82-6.49,8.69-2.5,5.43-2.5,5.43" style="fill:none;stroke:#263238;stroke-linecap:round;stroke-linejoin:round"></path><path d="M302.25,224.7s-5.35,6.24-6.12,9.42-.09,4.48-.09,4.48" style="fill:none;stroke:#263238;stroke-linecap:round;stroke-linejoin:round"></path><path d="M353.5,183.75s-13.25,1.75-18,6.5-9.25,16.5-9.25,16.5l10.25,8.5A30.71,30.71,0,0,0,335,233c2.25,9.25,2.25,31.75,2.25,38.75S337,300.5,337,300.5s.5,19.5,2.25,35,6.5,25.25,6.5,25.25-1,15.75-.25,24.5-5.25,44.25-5.25,44.25S350.75,431,355,431a21.16,21.16,0,0,0,5.75-.5l7.5-34.25s23,42.5,24,43.5,12.75-6.25,14.25-9a10.5,10.5,0,0,0,1.5-4.5l-27-66s12-34.5,16.5-43.75,5.5-24.75,4.25-33.75a83.55,83.55,0,0,0-3.5-15.25s-6.25-24-6.25-28.75,12.25-30,12.75-38.25-7.5-17.75-11.5-19.25-22.25-16-26.5-12.75-4,8.75-6.25,11.5S353.5,183.75,353.5,183.75Z" style="fill:#263238;stroke:#263238;stroke-linecap:round;stroke-linejoin:round"></path><path d="M374.89,279.21s7.52,2.63,19.18,2.63l-.38,4.14s-12,1.5-21.06-4.52" style="fill:none;stroke:#263238;stroke-linecap:round;stroke-linejoin:round"></path><line x1="341.8" y1="277.33" x2="337.66" y2="283.34" style="fill:none;stroke:#263238;stroke-linecap:round;stroke-linejoin:round"></line><line x1="344.05" y1="279.96" x2="337.66" y2="287.11" style="fill:none;stroke:#263238;stroke-linecap:round;stroke-linejoin:round"></line><path d="M357.55,301.38c.7-2.68,1.17-4.51,1.17-4.87" style="fill:none;stroke:#263238;stroke-linecap:round;stroke-linejoin:round"></path><path d="M346.5,356.75s3.75-26.75,6.25-37c1.24-5.1,2.73-10.63,3.9-15" style="fill:none;stroke:#263238;stroke-linecap:round;stroke-linejoin:round"></path><line x1="369.86" y1="390.12" x2="369.25" y2="394.25" style="fill:none;stroke:#263238;stroke-linecap:round;stroke-linejoin:round"></line><polyline points="379.75 363 371.5 379 370.46 386.02" style="fill:none;stroke:#263238;stroke-linecap:round;stroke-linejoin:round"></polyline><path d="M379,233.5s.25-25.25,5.5-37c3.26-7.3,5.94-12.77,7.51-15.86-5.63-3.12-21.35-15.13-25.26-12.14-4.25,3.25-4,8.75-6.25,11.5s-7,3.75-7,3.75-.61.08-1.6.25c-1.09,2.77-11.45,29.05-12.4,34.5a50.15,50.15,0,0,0-.75,10.25s11.25,4.75,20.5,5.5A104.12,104.12,0,0,0,379,233.5Z" style="fill:#fff;stroke:#263238;stroke-linecap:round;stroke-linejoin:round"></path><path d="M395.85,182.88a53.5,53.5,0,0,0-9.35,22.37A208.92,208.92,0,0,0,384,234.5s4,.86,8.46,1.85c2.21-7.94,11.85-28.55,12.29-35.85C405.16,193.8,400,186.28,395.85,182.88Z" style="fill:#fff;stroke:#263238;stroke-linecap:round;stroke-linejoin:round"></path><path d="M385.25,186.5c.37-3.95.67-7.13.64-9.72-6.95-4.53-16.26-10.48-19.14-8.28-4.25,3.25-4,8.75-6.25,11.5-2.11,2.58-6.43,3.62-6.95,3.74-.52,6.29-1.24,25.47,9.2,26.51C375.25,211.5,384.25,197.25,385.25,186.5Z" style="fill:#fff;stroke:#263238;stroke-linecap:round;stroke-linejoin:round"></path><path d="M331,134s-3.75,8-1.5,11.5,8.25,3.5,8.25,3.5,8.25,17.25,10.5,24a30.5,30.5,0,0,1,.5,17c-1,3.25-8.5,4.5-8.5,4.5s-1.5,2,4.75,2.5,7.5-2.75,7.5-2.75a10.61,10.61,0,0,0-.25,9.75c2.5,5.5,6.5,4,6.5,4s-4.25-7.5,1.5-12.75,1.75-18,1.75-18-12.25-28.5-17-35-7.25-9.5-9.75-10S331,134,331,134Z" style="fill:#263238;stroke:#263238;stroke-linecap:round;stroke-linejoin:round"></path><path d="M337.68,134.7s-5.26,10.76-3.51,17S337.93,163,337.93,163s-.75,6.51,4.5,10.26,10,10.27,15.78,10.27,10.51-12,10.51-13a37,37,0,0,0-.25-14.27c-1.75-7.51-9.76-19.28-17.27-21.78S338.43,132,337.68,134.7Z" style="fill:#fff;stroke:#263238;stroke-linecap:round;stroke-linejoin:round"></path><path d="M341.93,153.48s4,1.5,4,7.76" style="fill:none;stroke:#263238;stroke-linecap:round;stroke-linejoin:round"></path><path d="M346.69,169s-.5,1,1.5,1.75,3.51-2,3.51-2" style="fill:none;stroke:#263238;stroke-linecap:round;stroke-linejoin:round"></path><path d="M350.7,174.25s5.75-.5,8-5" style="fill:none;stroke:#263238;stroke-linecap:round;stroke-linejoin:round"></path><path d="M340.68,153.48a3,3,0,0,0-4.25,2.5" style="fill:none;stroke:#263238;stroke-linecap:round;stroke-linejoin:round"></path><path d="M348.44,151.72a6.91,6.91,0,0,1,7.26-2.5" style="fill:none;stroke:#263238;stroke-linecap:round;stroke-linejoin:round"></path><path d="M354.72,157.5c.36.82.31,1.63-.1,1.8s-1-.34-1.38-1.16-.3-1.63.11-1.8S354.37,156.68,354.72,157.5Z" style="fill:#263238"></path><path d="M342.26,161.31c.35.82.31,1.63-.1,1.8s-1-.34-1.38-1.16-.3-1.62.11-1.8S341.91,160.5,342.26,161.31Z" style="fill:#263238"></path><path d="M391.75,213.75,386.5,247s-30.25-5.5-36.5-7.75-12.75-4.5-12.75-4.5L326.75,226c-1.5-1.25-3.5-2-7.5-1.75s-6-.5-9.5,1.5-5.25,3.5-3,3.5,6.75-1.5,6.75-1.5l5.5.5s-8.75,4.75-7.75,7,3.25,6,3.25,6,.5,5.25,0,6.75.25,1.5,1.75-1a13.78,13.78,0,0,0,1.75-3.75l6.25-1.75s7.75,3.25,9,3.25h4s27,11,32,13.75,13.5,6.25,19.5,6.75,9.5,3.75,11.5.25S411.5,220.75,412.5,215a74.42,74.42,0,0,0,1-11.25s-4.25-4.5-9.5-2S391.75,213.75,391.75,213.75Z" style="fill:#fff;stroke:#263238;stroke-linecap:round;stroke-linejoin:round"></path><line x1="314.5" y1="241.25" x2="323.67" y2="235.93" style="fill:none;stroke:#263238;stroke-linecap:round;stroke-linejoin:round"></line><line x1="313.06" y1="237.92" x2="321.52" y2="231.29" style="fill:none;stroke:#263238;stroke-linecap:round;stroke-linejoin:round"></line><path d="M386.5,247a19.5,19.5,0,0,1,8.25,2.75" style="fill:#fff;stroke:#263238;stroke-linecap:round;stroke-linejoin:round"></path><path d="M395,183a18.22,18.22,0,0,1,13,3.25c6,4.5,7.25,21.5,7.25,21.5s-4.75-3.25-9.5-2S390.5,217.5,390.5,217.5l2-21.5" style="fill:#fff;stroke:#263238;stroke-linecap:round;stroke-linejoin:round"></path><path d="M335.5,190.25c-4.75,4.75-9.25,16.5-9.25,16.5l10.25,8.5,11.88-30.55C344.12,185.67,338.32,187.43,335.5,190.25Z" style="fill:#fff;stroke:#263238;stroke-linecap:round;stroke-linejoin:round"></path><path d="M336,136.25s12,.25,16.5,8.25,4.75,14.75,9.75,19.75,11.25,22.75,11.25,31-5,12-5,12,8.5,5.75,22.25-2S396.5,183,396.5,183s1-.75,5.25.25,8.25,4.5,8.25,4.5a30.46,30.46,0,0,0-2.75-9.25c-2.25-4.5-9.5-3.25-13.25-15.75s-2.75-21.5-7.75-29.5-19.75-16.25-28-17.75-27.5,13.75-29.75,18.75,4.25,2.25,4.25,2.25" style="fill:#263238;stroke:#263238;stroke-linecap:round;stroke-linejoin:round"></path></g><g id="freepik--Floor--inject-31"><line x1="266" y1="474.12" x2="18" y2="474.12" style="fill:none;stroke:#263238;stroke-linecap:round;stroke-miterlimit:10"></line><line x1="483" y1="474.12" x2="272" y2="474.12" style="fill:none;stroke:#263238;stroke-linecap:round;stroke-miterlimit:10"></line></g></svg>