<svg xmlns="http://www.w3.org/2000/svg" viewBox="0 0 500 500"><g id="freepik--background-simple--inject-9"><path d="M464.5,110.18q-2.38-4-5-7.91C436.33,67.93,396.44,44.44,357.2,33.82a231.88,231.88,0,0,0-52.71-7.7c-116.62-3.95-163.07,88-201.61,111.68S5,202,9,287s65.22,165,183.81,170,126.5-48.42,192.71-68.19c43.82-13.08,75-57.26,90.2-98.08C496.5,235.08,495.52,162.81,464.5,110.18Z" style="fill:#263238"></path><path d="M464.5,110.18q-2.38-4-5-7.91C436.33,67.93,396.44,44.44,357.2,33.82a231.88,231.88,0,0,0-52.71-7.7c-116.62-3.95-163.07,88-201.61,111.68S5,202,9,287s65.22,165,183.81,170,126.5-48.42,192.71-68.19c43.82-13.08,75-57.26,90.2-98.08C496.5,235.08,495.52,162.81,464.5,110.18Z" style="fill:#fff;opacity:0.7000000000000001"></path></g><g id="freepik--Floor--inject-9"><line x1="409.66" y1="445.44" x2="487.6" y2="445.44" style="fill:none;stroke:#263238;stroke-linecap:round;stroke-linejoin:round"></line><line x1="42.98" y1="445.44" x2="402" y2="445.44" style="fill:none;stroke:#263238;stroke-linecap:round;stroke-linejoin:round"></line><line x1="21.9" y1="445.44" x2="37.23" y2="445.44" style="fill:none;stroke:#263238;stroke-linecap:round;stroke-linejoin:round"></line></g><g id="freepik--Plant--inject-9"><path d="M448.69,343.55h0a.1.1,0,0,0-.05-.11.08.08,0,0,0-.11,0,109.77,109.77,0,0,0-5.71,17.91,168.23,168.23,0,0,0-3.15,18.55l-.44,4.69c-.07.79-.16,1.57-.21,2.35l-.13,2.35c-.07,1.57-.17,3.14-.21,4.71l0,4.72.06,2.35c0,.79.09,1.57.14,2.36.12,1.56.21,3.13.36,4.69.3,3.13.77,6.24,1.25,9.33a.08.08,0,0,0,.08.07.09.09,0,0,0,.09-.08h0c0-1.57-.08-3.13-.11-4.69s-.19-3.12-.16-4.68,0-3.12-.05-4.68l-.05-2.34,0-2.34,0-4.67.13-4.67.05-2.33c0-.78.09-1.56.13-2.33l.29-4.67a165.26,165.26,0,0,1,2.64-18.51A109.19,109.19,0,0,1,448.69,343.55Z" style="fill:#263238"></path><path d="M449.36,368a.09.09,0,0,0-.05-.11.08.08,0,0,0-.1.05A108.2,108.2,0,0,0,443.92,392c-.41,4.09-.87,8.18-.93,12.29a101.4,101.4,0,0,0,.44,12.32.08.08,0,0,0,.07.08.08.08,0,0,0,.09-.08c.48-4.09.77-8.17,1.05-12.25s.33-8.17.6-12.25A107.78,107.78,0,0,1,446.69,380,111.2,111.2,0,0,1,449.36,368Z" style="fill:#263238"></path><path d="M462.91,376.57a.1.1,0,0,0-.12,0,41.29,41.29,0,0,0-9.05,7.9,35.29,35.29,0,0,0-3.54,4.92l-.73,1.37-.57,1.43a14.59,14.59,0,0,0-.5,1.45c-.14.48-.31,1-.44,1.46A58.43,58.43,0,0,0,446.09,407a69.08,69.08,0,0,0,.45,12,.08.08,0,0,0,.07.07.08.08,0,0,0,.09-.08l1-11.9a106.88,106.88,0,0,1,1.5-11.75c.11-.47.25-.94.37-1.42a11.28,11.28,0,0,1,.42-1.4l.48-1.38.62-1.3a35.16,35.16,0,0,1,3.25-4.92,41,41,0,0,1,8.5-8.28h0A.08.08,0,0,0,462.91,376.57Z" style="fill:#263238"></path><path d="M456.35,391.87a13.21,13.21,0,0,0-4.12,4.95,29.78,29.78,0,0,0-2.3,6.06c-.16.52-.29,1.05-.41,1.57l-.37,1.59a26.81,26.81,0,0,0-.4,3.21c0,1.08,0,2.16,0,3.24a29.24,29.24,0,0,0,.42,3.22.09.09,0,0,0,.07.06.08.08,0,0,0,.1-.06,30.2,30.2,0,0,0,.57-3.17c.17-1.05.33-2.09.45-3.13s.3-2.08.38-3.12.22-2.09.44-3.11a28.6,28.6,0,0,1,1.77-6,13.25,13.25,0,0,1,3.46-5.16h0a.08.08,0,0,0,0-.11A.07.07,0,0,0,456.35,391.87Z" style="fill:#263238"></path><path d="M437.36,403.8c-.44-5.29-1.32-10.52-2.14-15.75s-1.74-10.45-2.7-15.66-2-10.39-3.14-15.56a.08.08,0,0,0-.1-.06s-.07.05-.07.09c.91,5.21,1.73,10.44,2.5,15.67s1.54,10.46,2.2,15.7,1.15,10.5,1.81,15.74l1.93,15.74a.08.08,0,0,0,.08.07.08.08,0,0,0,.09-.08c.06-1.33.06-2.65.09-4s-.05-2.65-.07-4C437.79,409.08,437.56,406.44,437.36,403.8Z" style="fill:#263238"></path><path d="M434.19,403.72c-.28-2.09-.67-4.17-1.07-6.25l-.74-3.09c-.24-1-.47-2.06-.77-3.07a88.85,88.85,0,0,0-4-12l-.64-1.46-.7-1.42c-.45-1-1-1.87-1.51-2.8a23.49,23.49,0,0,0-3.81-5.06.09.09,0,0,0-.12.12h0a23.25,23.25,0,0,1,3.49,5.17c.46.94.95,1.87,1.34,2.84l.62,1.44.55,1.47a84.89,84.89,0,0,1,3.52,12c.49,2,.81,4.11,1.2,6.16l.49,3.1c.18,1,.4,2.05.55,3.09.33,2.06.71,4.13,1.07,6.19s.7,4.15,1.14,6.22a.08.08,0,0,0,.08.07.09.09,0,0,0,.08-.08q0-3.18-.15-6.34C434.66,407.92,434.41,405.82,434.19,403.72Z" style="fill:#263238"></path><path d="M429.82,404c-1-2.77-2.12-5.49-3.35-8.15a73.8,73.8,0,0,0-4.21-7.72s-.08-.05-.11,0a.09.09,0,0,0,0,.12,72.84,72.84,0,0,1,3.59,8c1.07,2.7,2,5.44,2.85,8.23s1.42,5.62,2.16,8.42,1.41,5.62,2.27,8.45a.09.09,0,0,0,.08.06.09.09,0,0,0,.08-.08,41.26,41.26,0,0,0-.82-8.8A55.51,55.51,0,0,0,429.82,404Z" style="fill:#263238"></path><path d="M429.64,413.23a19.21,19.21,0,0,0-2.33-4.88,20.53,20.53,0,0,0-3.39-4.21,15.32,15.32,0,0,0-2.15-1.62,8.75,8.75,0,0,0-2.45-1.11.07.07,0,0,0-.09,0,.08.08,0,0,0,0,.11h0a12.09,12.09,0,0,1,4.05,3.15,19.38,19.38,0,0,1,2.83,4.28c.8,1.51,1.21,3.19,1.91,4.76.31.8.61,1.61,1,2.41a21.45,21.45,0,0,0,1.06,2.44h0a.08.08,0,0,0,.07.05.11.11,0,0,0,.09-.08,20.19,20.19,0,0,0-.11-2.7C430,415,429.85,414.11,429.64,413.23Z" style="fill:#263238"></path><path d="M430,364.4a15,15,0,0,1-10.66-11.33c-2-9.33,4.44-5.33-1.33-20s-4.44-18-2.45-22.21,3.11-2.89,4.89,2.66,8.22,14.22,10.66,30.43S430,364.4,430,364.4Z" style="fill:#263238"></path><path d="M447.07,348.63s-5.78-2-6-12.89,4.22-8.66,4.88-22.21,1.56-23.1,4-23.32,8.89,6.66,11.11,21.77-2.89,25.1-7.33,29.54S447.07,348.63,447.07,348.63Z" style="fill:#263238"></path><path d="M426.85,377.5s-1.33-8-4-11.77-8.44-7.11-12.21-14.44-8-10.88-7.78-.44,4.89,15.77,10.67,19.32S426.85,377.5,426.85,377.5Z" style="fill:#263238"></path><path d="M424.41,391.27A80,80,0,0,0,411.3,373.5c-7.77-7.55-14-11.32-11.77-7.55s4.89,3.56,8.66,10.22,2.67,11.55,8,15.33S424.41,391.27,424.41,391.27Z" style="fill:#263238"></path><path d="M423.74,404.38c-.22-.67-.44-5.55-8-9.55s-14.66-2.45-13.77-.45,5.55,5.33,10.21,7.33S423.74,404.38,423.74,404.38Z" style="fill:#263238"></path><path d="M446.62,378s-3.33-4.22-1.55-13.11,5.77-6.66,10.21-11.33,3.56-5.33,8-10.21,8.44-7.56,10.22-5.56-.89,8.22-3.56,11.78-6.88,5.33-8.88,9.77-1.11,11.55-6.22,14.88S446.62,378,446.62,378Z" style="fill:#263238"></path><path d="M457.73,380.39s8-9.11,13.77-15.77,8-11.77,8.22-7.33,2,8-2.67,13.77S457.73,380.39,457.73,380.39Z" style="fill:#263238"></path><path d="M453.51,395.05s-.23-3.55,12.43-11.77,18-9.78,16.66-6.44-6.88,6.66-12.88,12.66S453.51,395.05,453.51,395.05Z" style="fill:#263238"></path><path d="M430.49,363.45s-3-15.93-6.08-27.26S419.3,318,419.3,318" style="fill:none;stroke:#263238;stroke-linecap:round;stroke-linejoin:round"></path><path d="M446.55,348.79s5.4-17.27,7.18-27.71-.22-18.21-1.11-22.87" style="fill:none;stroke:#263238;stroke-linecap:round;stroke-linejoin:round"></path><path d="M426.15,377.17A83.86,83.86,0,0,0,418,365.51c-4.89-5.78-8.66-8.89-10.89-14.44" style="fill:none;stroke:#263238;stroke-linecap:round;stroke-linejoin:round"></path><path d="M446.62,378s1.78-10.67,6-16.22,12.66-14.21,16-19.77" style="fill:none;stroke:#263238;stroke-linecap:round;stroke-linejoin:round"></path><path d="M423.22,404.14s-7.47-4.87-12.8-7.54" style="fill:none;stroke:#263238;stroke-linecap:round;stroke-linejoin:round"></path><polygon points="447.79 451.24 432.35 451.24 424.63 412.6 455.5 412.6 447.79 451.24" style="fill:#263238;stroke:#263238;stroke-linecap:round;stroke-linejoin:round"></polygon></g><g id="freepik--Icons--inject-9"><g style="opacity:0.30000000000000004"><circle cx="385.68" cy="38.08" r="18.53" style="fill:none;stroke:#000;stroke-linecap:round;stroke-linejoin:round"></circle><polyline points="394.99 44.86 385.68 38.08 385.68 31.34" style="fill:none;stroke:#000;stroke-linecap:round;stroke-linejoin:round"></polyline></g><g style="opacity:0.30000000000000004"><circle cx="262.2" cy="57.38" r="17.85" transform="translate(-5.82 42.98) rotate(-9.27)" style="fill:none;stroke:#000;stroke-linecap:round;stroke-linejoin:round"></circle><rect x="250.69" y="49.82" width="23.04" height="15.12" style="fill:none;stroke:#000;stroke-linecap:round;stroke-linejoin:round"></rect><polyline points="250.69 49.82 262.2 57.38 273.72 49.82" style="fill:none;stroke:#000;stroke-linecap:round;stroke-linejoin:round"></polyline></g><g style="opacity:0.30000000000000004"><circle cx="81.82" cy="88" r="17.85" style="fill:none;stroke:#000;stroke-linecap:round;stroke-linejoin:round"></circle><polygon points="90.75 88.64 77.08 80.75 77.08 96.53 90.75 88.64" style="fill:none;stroke:#000;stroke-linecap:round;stroke-linejoin:round"></polygon></g><g style="opacity:0.30000000000000004"><circle cx="157.3" cy="334.49" r="24.29" transform="translate(-212.02 349.52) rotate(-67.14)" style="fill:none;stroke:#000;stroke-linecap:round;stroke-linejoin:round"></circle><circle cx="157.48" cy="334.49" r="8.48" style="fill:none;stroke:#000;stroke-linecap:round;stroke-linejoin:round"></circle><path d="M178.11,338.39v-7.45h-5a16,16,0,0,0-2-4.83l3.57-3.58-5.26-5.26L166,320.83a15.82,15.82,0,0,0-4.75-2v-5.17h-7.44v5.17a16.2,16.2,0,0,0-4.66,1.92L145.35,317l-5.26,5.26,3.73,3.74a15.84,15.84,0,0,0-1.93,4.57H136.5V338h5.3a16.16,16.16,0,0,0,1.83,4.62l-3.79,3.79,5.26,5.26,3.69-3.69a15.8,15.8,0,0,0,4.62,2v5.26h7.44v-5.08a15.7,15.7,0,0,0,4.79-1.88l3.62,3.62,5.26-5.26L171,343.17a16.06,16.06,0,0,0,2.06-4.78Z" style="fill:none;stroke:#000;stroke-linecap:round;stroke-linejoin:round"></path></g><g style="opacity:0.30000000000000004"><circle cx="455.84" cy="175.12" r="24.29" transform="translate(9.68 373.62) rotate(-45)" style="fill:none;stroke:#000;stroke-linecap:round;stroke-linejoin:round"></circle><path d="M465.54,163.14H444.35a4.56,4.56,0,0,0-4.56,4.56v11.65a4.56,4.56,0,0,0,4.56,4.56H459l-1.15,8.42,7.09-8.42h.58a4.56,4.56,0,0,0,4.55-4.56V167.7A4.56,4.56,0,0,0,465.54,163.14Z" style="fill:none;stroke:#000;stroke-linecap:round;stroke-linejoin:round"></path><line x1="446.11" y1="170.31" x2="464.63" y2="170.31" style="fill:none;stroke:#000;stroke-linecap:round;stroke-linejoin:round"></line><line x1="446.11" y1="176.07" x2="464.63" y2="176.07" style="fill:none;stroke:#000;stroke-linecap:round;stroke-linejoin:round"></line></g></g><g id="freepik--Device--inject-9"><path d="M375.8,185.92V154.43H373V114.1A24.85,24.85,0,0,0,348.1,89.24H214.58a24.86,24.86,0,0,0-24.86,24.86V431.53a24.86,24.86,0,0,0,24.86,24.86H348.1A24.85,24.85,0,0,0,373,431.53V212.77h2.85V194.16H373v-8.24Z" style="fill:#707070;stroke:#263238;stroke-linejoin:round"></path><path d="M343.74,453H218.94a26.34,26.34,0,0,1-26.34-26.34V119c0-14.54,7.46-26.33,26.34-26.33h124.8c17.31-.24,26.34,11.79,26.34,26.33V426.63A26.34,26.34,0,0,1,343.74,453Z" style="fill:#263238;stroke:#263238;stroke-linejoin:round"></path><path d="M291,96.72l-.05.18c-1.46,5.44-4.82,9-8.54,9h-2.14c-3.72,0-7.08-3.53-8.54-9l-.05-.18-52.08-.19a21.92,21.92,0,0,0-22,21.91l-.07,304.94c0,14.22,11.12,25.74,24.85,25.74h117.9c13.72,0,24.85-11.52,24.85-25.74l0-307.13a19,19,0,0,0-18.78-19Z" style="fill:#263238;stroke:#263238;stroke-linecap:round;stroke-linejoin:round"></path><path d="M283.16,96.12a2.34,2.34,0,1,0-2.33,2.33A2.33,2.33,0,0,0,283.16,96.12Z" style="fill:#707070"></path><circle cx="224.5" cy="172.05" r="10.78" style="fill:#fff;stroke:#263238;stroke-linecap:round;stroke-linejoin:round;stroke-width:2px"></circle><circle cx="263.51" cy="172.05" r="10.78" style="fill:#fff"></circle><circle cx="302.53" cy="172.05" r="10.78" style="fill:#fff"></circle><line x1="241.82" y1="141.55" x2="324.22" y2="141.55" style="fill:none;stroke:#263238;stroke-linecap:round;stroke-linejoin:round"></line><circle cx="341.54" cy="172.05" r="10.78" style="fill:#fff"></circle><circle cx="224.5" cy="220.82" r="10.78" transform="translate(-31.56 37.54) rotate(-8.93)" style="fill:#fff"></circle><circle cx="263.51" cy="220.82" r="10.78" transform="translate(-43.85 66.79) rotate(-13.35)" style="fill:#fff"></circle><circle cx="302.53" cy="220.82" r="10.78" transform="translate(-31.56 51.49) rotate(-9.25)" style="fill:#fff"></circle><circle cx="341.54" cy="220.82" r="10.78" transform="translate(-30.34 56.14) rotate(-9)" style="fill:#fff;stroke:#263238;stroke-linecap:round;stroke-linejoin:round;stroke-width:2px"></circle><circle cx="224.5" cy="269.58" r="10.78" style="fill:#fff"></circle><circle cx="263.51" cy="269.58" r="10.78" style="fill:#fff"></circle><circle cx="302.53" cy="269.58" r="10.78" style="fill:#fff"></circle><circle cx="341.54" cy="269.58" r="10.78" style="fill:#fff"></circle><circle cx="224.5" cy="318.35" r="10.78" style="fill:#fff"></circle><circle cx="263.51" cy="318.35" r="10.78" style="fill:#fff"></circle><circle cx="302.53" cy="318.35" r="10.78" style="fill:#fff"></circle><circle cx="341.54" cy="318.35" r="10.78" style="fill:#fff;stroke:#263238;stroke-linecap:round;stroke-linejoin:round;stroke-width:2px"></circle><circle cx="224.5" cy="370.95" r="10.78" style="fill:#fff"></circle><circle cx="263.51" cy="370.95" r="10.78" style="fill:#fff"></circle><circle cx="302.53" cy="370.95" r="10.78" style="fill:#fff"></circle><circle cx="341.54" cy="370.95" r="10.78" style="fill:#fff"></circle><path d="M341.8,427.12H222.7a8,8,0,0,1-7.95-8h0a8,8,0,0,1,7.95-8H341.8a8,8,0,0,1,7.95,8h0A8,8,0,0,1,341.8,427.12Z" style="fill:#fff"></path><path d="M214.06,102.06c0,2.36-2.65,3.21-2.66,5v.12H214v.8h-3.43v-.67c0-2.53,2.65-3,2.65-5.23,0-.8-.27-1.23-.92-1.23s-.92.46-.92,1.15v.7h-.81v-.64c0-1.2.54-2,1.75-2S214.06,100.86,214.06,102.06Z" style="fill:#263238"></path><path d="M218.35,102.05v.2a1.57,1.57,0,0,1-.95,1.61,1.57,1.57,0,0,1,.95,1.62v.61c0,1.19-.56,2-1.77,2s-1.76-.79-1.76-2v-.54h.82v.59c0,.71.29,1.13.92,1.13s.91-.41.91-1.21v-.6c0-.77-.32-1.14-1-1.16H216v-.79h.51a.93.93,0,0,0,.94-1.07v-.36c0-.8-.28-1.22-.91-1.22s-.92.44-.92,1.14v.41h-.82v-.36c0-1.2.56-2,1.76-2S218.35,100.85,218.35,102.05Z" style="fill:#263238"></path><path d="M220,102.64v1.09h-.84v-1.09Zm0,4.26V108h-.84V106.9Z" style="fill:#263238"></path><path d="M221.8,103.35a1.26,1.26,0,0,1,1.17-.65c1,0,1.45.73,1.45,1.85v1.54c0,1.19-.57,2-1.76,2s-1.76-.79-1.76-2v-.53h.82v.58c0,.71.29,1.13.91,1.13s.92-.42.92-1.13v-1.52c0-.7-.29-1.13-.92-1.13a.84.84,0,0,0-.88.84v.18h-.82l.22-4.35h3.08v.78h-2.3Z" style="fill:#263238"></path><path d="M228.78,102v.14H228V102c0-.7-.29-1.12-.93-1.12s-.95.43-.95,1.27v1.75a1.27,1.27,0,0,1,1.26-.84c1,0,1.46.73,1.46,1.86v1.19c0,1.19-.59,2-1.79,2s-1.8-.79-1.8-2v-4c0-1.24.56-2,1.8-2S228.78,100.84,228.78,102Zm-2.7,2.93v1.17c0,.71.29,1.13.93,1.13s.93-.42.93-1.13V105c0-.71-.3-1.13-.93-1.13S226.08,104.26,226.08,105Z" style="fill:#263238"></path><rect x="312.07" y="102.38" width="2.21" height="5.53" style="fill:#263238"></rect><rect x="315.02" y="101.27" width="2.21" height="6.64" style="fill:#263238"></rect><rect x="317.97" y="100.49" width="2.21" height="7.42" style="fill:#263238"></rect><rect x="320.91" y="99.12" width="2.21" height="8.79" style="fill:#263238"></rect><path d="M350.49,107.76H337.22V99.65h13.27ZM338,107h11.79v-6.63H338Z" style="fill:#263238"></path><rect x="339.07" y="101.19" width="7" height="5.03" style="fill:#263238"></rect><rect x="350.03" y="102.75" width="1.67" height="1.91" style="fill:#263238"></rect><path d="M332.36,106a.48.48,0,0,1-.26-.07c-2.7-1.6-4.48-.11-4.55,0a.5.5,0,0,1-.66-.74c.1-.09,2.38-2,5.72-.06a.49.49,0,0,1,.17.68A.47.47,0,0,1,332.36,106Z" style="fill:#263238"></path><path d="M333.36,104.33a.48.48,0,0,1-.26-.07c-3.9-2.32-6.52-.08-6.55-.06a.49.49,0,0,1-.7,0,.5.5,0,0,1,0-.7s3.2-2.74,7.72,0a.5.5,0,0,1-.25.92Z" style="fill:#263238"></path><path d="M334.26,102.4a.47.47,0,0,1-.25-.07c-4.94-2.94-8.23-.17-8.37,0a.5.5,0,0,1-.7,0,.49.49,0,0,1,.05-.7s3.94-3.37,9.53,0a.5.5,0,0,1,.17.68A.51.51,0,0,1,334.26,102.4Z" style="fill:#263238"></path><path d="M330.87,106.82a1.25,1.25,0,1,1-1.25-1.24A1.25,1.25,0,0,1,330.87,106.82Z" style="fill:#263238"></path></g><g id="freepik--Character--inject-9"><path d="M65.43,441.08a34.45,34.45,0,0,1-3.2,4.42c-1.22,1.22-4.88,3.8-6.25,5s-1.21,2.13-.61,3.05,24.68,0,24.68,0,.91.61.91-3.05a12.43,12.43,0,0,0-1.37-5.94S67.1,440.93,65.43,441.08Z" style="fill:#fff;stroke:#263238;stroke-linecap:round;stroke-linejoin:round"></path><path d="M55,452.05a2.06,2.06,0,0,0,.41,1.52c.61.91,24.68,0,24.68,0s.62.41.84-1.52Z" style="fill:#fff;stroke:#263238;stroke-linecap:round;stroke-linejoin:round"></path><path d="M112.61,441.08a34.3,34.3,0,0,0,3.3,4.42c1.26,1.22,5,3.8,6.45,5s1.25,2.13.63,3.05-25.47,0-25.47,0-1,.61-1-3.05A12.1,12.1,0,0,1,98,444.58S110.88,440.93,112.61,441.08Z" style="fill:#fff;stroke:#263238;stroke-linecap:round;stroke-linejoin:round"></path><path d="M123.41,452.05a2,2,0,0,1-.42,1.52c-.63.91-25.47,0-25.47,0s-.65.41-.87-1.52Z" style="fill:#fff;stroke:#263238;stroke-linecap:round;stroke-linejoin:round"></path><path d="M62.48,321.27s2,82,2.34,86.31,1.82,16.6,1.82,16.6-.45,4.87-.76,6.39S67,436.51,67,436.51a14,14,0,0,0-1.22,2.59c-.15.76-.3,2-.3,2a62.71,62.71,0,0,1,8.22,2.28,15.53,15.53,0,0,0,5.94,1.22s.61-4,1.37-6.7,1.67-6.24,1.52-9.13-1.83-8.08-1.67-9.6,2.13-5.18,2.13-7.77-.31-8.22-.31-8.22l7.87-63.47,5.38,85.55s-2.59,9.29-1.06,10.82A35.4,35.4,0,0,1,97.41,439a22.56,22.56,0,0,0-.77,3.35c0,.76.16,1.22.16,1.83a11.84,11.84,0,0,0,.15,1.52s3.81-1.52,7.16-2.59a43.17,43.17,0,0,1,8.53-1.37s.15-4.42.15-6.09,1.37-4.42,1.06-6.09-1.52-4.72-1.82-5.94a24.32,24.32,0,0,1-.31-4.42c0-.61,2.84-89.2,2.84-89.2S113,318.07,113,317.61s-1.68-5.48-1.68-5.48l-48.73,6.39Z" style="fill:#263238;stroke:#263238;stroke-linecap:round;stroke-linejoin:round"></path><path d="M80.35,432.25s-16.3,2.43-11.88,3.65,9.6,1.37,9.29.31-2.44-1.07-2.44-1.07" style="fill:none;stroke:#a1a1a1;stroke-linecap:round;stroke-linejoin:round"></path><path d="M110.81,432.1s-11.88,7-9.9,6.7,7.16-1.37,8.07-2.59" style="fill:none;stroke:#a1a1a1;stroke-linecap:round;stroke-linejoin:round"></path><polygon points="78.32 236.75 69.94 242.53 77.4 318.68 105.42 314.72 95.83 235.37 78.32 236.75" style="fill:#fff;stroke:#263238;stroke-linecap:round;stroke-linejoin:round"></polygon><path d="M73.44,225.78l2.14,18.88s2.89,3.66,10,2.59,8.07-6.09,8.07-6.09l-1.52-17.51s-1.68,1.83-7.16,3.2S73.44,225.78,73.44,225.78Z" style="fill:#fff;stroke:#263238;stroke-linecap:round;stroke-linejoin:round"></path><path d="M70.25,193.34s-4.27,2.9-5.64,6.55-.61,5-.15,7,3.2,7,3.2,7,2.74,8.38,3.65,10.36,7.46,6.39,9.75,7.92c0,0,3.2.61,4.57.15s4.57-2.29,5.48-4.88,2.28-5,2.44-7.61-.16-10.51-.16-10.51,3.35-7,2-10.05-3.8-8.07-11.27-9.29S71.62,191.06,70.25,193.34Z" style="fill:#fff;stroke:#263238;stroke-linecap:round;stroke-linejoin:round"></path><path d="M95.37,199.28c-1.37-3-3.8-8.07-11.27-9.29s-12.48,1.07-13.85,3.35c0,0-4.27,2.9-5.64,6.55s-.61,5-.15,7,3.2,7,3.2,7l.58,1.77.18-.09s-1.07-7.47-.76-9,3-3.5,3.65-5a19.31,19.31,0,0,0,.76-2.14s3.51,5.33,9.75,5.33,9.14-.3,9.14-.3l1.52,3,.91,1.82S96.74,202.33,95.37,199.28Z" style="fill:#263238;stroke:#263238;stroke-linecap:round;stroke-linejoin:round"></path><polyline points="83.04 210.4 84.87 219.54 81.21 220.3" style="fill:none;stroke:#263238;stroke-linecap:round;stroke-linejoin:round"></polyline><path d="M79.08,222.58s4.72,2.29,7.92-1.52" style="fill:none;stroke:#263238;stroke-linecap:round;stroke-linejoin:round"></path><path d="M76.3,212.11c.25.89,0,1.73-.5,1.88s-1.15-.45-1.4-1.34,0-1.74.5-1.88S76.05,211.22,76.3,212.11Z" style="fill:#263238"></path><ellipse cx="87.46" cy="210.86" rx="0.99" ry="1.68" transform="translate(-53.78 31.52) rotate(-15.7)" style="fill:#263238"></ellipse><path d="M71.46,209.94a7.83,7.83,0,0,1,6.1-1.52" style="fill:none;stroke:#263238;stroke-linecap:round;stroke-linejoin:round"></path><path d="M84.41,208s4.11-1.67,5.94-.45" style="fill:none;stroke:#263238;stroke-linecap:round;stroke-linejoin:round"></path><path d="M68.24,215.67s-2.41-1.77-2.71.82.76,3.81,2.13,4.26,2.74,1.07,2.74,1.07Z" style="fill:none;stroke:#263238;stroke-linecap:round;stroke-linejoin:round"></path><path d="M93.7,212.07s2.13-2.59,2.44.46-2.29,6.09-2.29,6.09Z" style="fill:none;stroke:#263238;stroke-linecap:round;stroke-linejoin:round"></path><path d="M43.9,271.92s-1.37-7.76-2.28-10.5-4.42-4.12-5.79-5.33-1.83-4.42-3.35-4-1.07,2.43-.46,3.8a21.35,21.35,0,0,0,2,3.2s-3.35-1.83-5.48-2.74a17.56,17.56,0,0,1-4.26-2.59c-.77-.61-.31,3.2.3,5.48s2.13,6.25,5.33,7.92,5.63,2.9,5.63,2.9l2.14,4.41Z" style="fill:#fff;stroke:#263238;stroke-linecap:round;stroke-linejoin:round"></path><path d="M38,267.05s-1.22-3.81-3.2-4.72-2.59,0-3.8-1.68-2.29-5.48-3.51-7.15-1.82.45-1.37,2.43,2.13,7.47,2.44,8.68,2.74,2.29,3.81,3.05" style="fill:#fff;stroke:#263238;stroke-linecap:round;stroke-linejoin:round"></path><path d="M73.29,233.09A25.45,25.45,0,0,1,76,238.42a21.42,21.42,0,0,1,1.53,5.79,7.13,7.13,0,0,1,.15,2.74,27.6,27.6,0,0,0-.31,4.72C77.56,253.19,82,324.46,82,326s.46,5.17-.15,5.48,1.68,1.22-8.38-.61A68.77,68.77,0,0,1,57.15,326V302.53s-2.59,2-7.46.46c-7.23-2.26-8.53-8.83-11.27-16.75S34,274.51,34,274.51l9.9-5L47.71,276s4.11-16.45,4.11-18.74-.61-5.63-.31-6.39,19-12,19-12S71.92,232.79,73.29,233.09Z" style="fill:#263238;stroke:#263238;stroke-linecap:round;stroke-linejoin:round"></path><path d="M58.45,268c-.31-3.31-.54-5.52-.54-5.52" style="fill:none;stroke:#263238;stroke-linecap:round;stroke-linejoin:round"></path><path d="M57.15,302.53s3.05.46,3.2-7.15c.09-4.8-.9-16.61-1.65-24.69" style="fill:none;stroke:#263238;stroke-linecap:round;stroke-linejoin:round"></path><line x1="55.8" y1="284.39" x2="57.3" y2="285.93" style="fill:none;stroke:#263238;stroke-linecap:round;stroke-linejoin:round"></line><line x1="47.71" y1="276.04" x2="54.6" y2="283.15" style="fill:none;stroke:#263238;stroke-linecap:round;stroke-linejoin:round"></line><line x1="51.97" y1="280.6" x2="57.3" y2="283.04" style="fill:none;stroke:#263238;stroke-linecap:round;stroke-linejoin:round"></line><polygon points="61.26 313.5 61.72 317.15 74.66 310.45 74.21 306.04 61.26 313.5" style="fill:#263238;stroke:#263238;stroke-linecap:round;stroke-linejoin:round"></polygon><path d="M147.46,262l3.65-3.35s2.59-4.72,3.51-6.54,3.19-.31,4.87-1.22,4.26-3.2,4.72-2.13a2,2,0,0,1-.76,2.43,22.72,22.72,0,0,1-2.59,1.37,50.91,50.91,0,0,0,5-1.52c.92-.46,5.64-3.5,5.64-1.52s-3.05,5.94-5,7.92-5,4.72-8.37,5.78-4.11,1.37-4.11,1.37l-3.2,3.51Z" style="fill:#fff;stroke:#263238;stroke-linecap:round;stroke-linejoin:round"></path><path d="M153.24,262.48s1.68-4.72,3.35-5.33,6.4-.76,6.4-.76,2.89-4.72,4.72-6.24,1.83.61,1.07,2.28a31.37,31.37,0,0,1-3.81,5.79,23.91,23.91,0,0,1-2.13,2.13" style="fill:#fff;stroke:#263238;stroke-linecap:round;stroke-linejoin:round"></path><path d="M160.86,252.58s-2.59.16-3.35.92" style="fill:none;stroke:#263238;stroke-linecap:round;stroke-linejoin:round"></path><path d="M92.79,233.39s4.11,32.9,4.11,39,2.59,58.18,2.59,58.18a25.47,25.47,0,0,0,12.94-1.83c7.16-2.9,8.22-5.18,8.38-6.4s-3-31.52-3-31.52,2.59,1.52,7.92-.31,27.56-18.58,27.56-18.58l-5.78-9.9-19.34,8.23s-5.49-14.47-7.92-19.19-1.83-6.55-3.35-8.07-18.13-5-18.13-5-2.89-5.78-3.8-7S92.63,230,92.79,233.39Z" style="fill:#263238;stroke:#263238;stroke-linecap:round;stroke-linejoin:round"></path><line x1="114.96" y1="265.97" x2="114.41" y2="261.11" style="fill:none;stroke:#263238;stroke-linecap:round;stroke-linejoin:round"></line><line x1="117.76" y1="290.81" x2="115.37" y2="269.65" style="fill:none;stroke:#263238;stroke-linecap:round;stroke-linejoin:round"></line><path d="M124.85,274.69a7.57,7.57,0,0,0-1,2.56" style="fill:none;stroke:#263238;stroke-linecap:round;stroke-linejoin:round"></path><path d="M128.12,270.25a33.35,33.35,0,0,0-2.4,3.07" style="fill:none;stroke:#263238;stroke-linecap:round;stroke-linejoin:round"></path><polygon points="105.12 303.45 104.82 306.49 116.09 311.21 116.39 308.17 105.12 303.45" style="fill:#263238;stroke:#263238;stroke-linecap:round;stroke-linejoin:round"></polygon></g><g id="freepik--information-bubbles--inject-9"><path d="M190.73,85.35h-44.8A11.37,11.37,0,0,1,134.56,74h0a11.37,11.37,0,0,1,11.37-11.37h44.8A11.37,11.37,0,0,1,202.1,74h0A11.37,11.37,0,0,1,190.73,85.35Z" style="fill:#fff;stroke:#263238;stroke-linecap:round;stroke-linejoin:round"></path><polyline points="213.72 172.05 168.4 151.8 168.4 85.86" style="fill:none;stroke:#263238;stroke-linecap:round;stroke-linejoin:round"></polyline><line x1="145.45" y1="73.97" x2="190.66" y2="73.97" style="fill:none;stroke:#263238;stroke-linecap:round;stroke-linejoin:round"></line><path d="M400.06,245.38h44.8A11.37,11.37,0,0,0,456.23,234h0a11.37,11.37,0,0,0-11.37-11.37h-44.8A11.37,11.37,0,0,0,388.69,234h0A11.37,11.37,0,0,0,400.06,245.38Z" style="fill:#fff;stroke:#263238;stroke-linecap:round;stroke-linejoin:round"></path><polyline points="352.32 318.35 422.38 296.66 422.38 245.89" style="fill:none;stroke:#263238;stroke-linecap:round;stroke-linejoin:round"></polyline><line x1="399.15" y1="233.78" x2="446.05" y2="233.78" style="fill:none;stroke:#263238;stroke-linecap:round;stroke-linejoin:round"></line><rect x="388.69" y="106.66" width="67.54" height="22.74" rx="11.37" transform="translate(844.91 236.07) rotate(180)" style="fill:#fff;stroke:#263238;stroke-linecap:round;stroke-linejoin:round"></rect><polyline points="352.32 217.54 422.38 195.85 422.38 129.91" style="fill:none;stroke:#263238;stroke-linecap:round;stroke-linejoin:round"></polyline><line x1="399.15" y1="117.81" x2="446.05" y2="117.81" style="fill:none;stroke:#263238;stroke-linecap:round;stroke-linejoin:round"></line></g><g id="freepik--speech-bubble--inject-9"><path d="M140.89,130.18H49.79a11.75,11.75,0,0,0-11.74,11.75v17.3A11.75,11.75,0,0,0,49.79,171H98.68l-4.24,18,14.19-18h32.26a11.75,11.75,0,0,0,11.75-11.75v-17.3A11.75,11.75,0,0,0,140.89,130.18Z" style="fill:#263238"></path><path d="M46,157.37V142.23h1.44l4.3,10.06V142.23h1.76v15.14H52.2L47.84,147v10.34Z" style="fill:#263238"></path><path d="M58.74,157.52a3.32,3.32,0,0,1-2-.49,2.59,2.59,0,0,1-1-1.46,8.46,8.46,0,0,1-.28-2.37v-2.47a8.9,8.9,0,0,1,.28-2.39,2.58,2.58,0,0,1,1-1.44,3.36,3.36,0,0,1,1.93-.49,3,3,0,0,1,2,.57,2.7,2.7,0,0,1,.85,1.61,13.27,13.27,0,0,1,.21,2.54V152H57.55v2.17a3.87,3.87,0,0,0,.12,1.06,1.08,1.08,0,0,0,.39.61,1.16,1.16,0,0,0,.7.2.93.93,0,0,0,.68-.22,1.06,1.06,0,0,0,.32-.62,4.28,4.28,0,0,0,.09-.94v-.65h1.94V154a4.23,4.23,0,0,1-.69,2.56A2.75,2.75,0,0,1,58.74,157.52Zm-1.19-6.6h2.3v-1a7,7,0,0,0-.08-1.13,1.17,1.17,0,0,0-.31-.69,1,1,0,0,0-.74-.24,1,1,0,0,0-.73.23,1.26,1.26,0,0,0-.35.75,9.39,9.39,0,0,0-.09,1.47Z" style="fill:#263238"></path><path d="M64.88,157.37l-1.74-10.81h1.64l1.12,8,1.45-8h1.53l1.44,7.93,1.12-7.93h1.65l-1.8,10.81H69.61l-1.48-7.63-1.46,7.63Z" style="fill:#263238"></path><path d="M79.54,157.37V148H78.25v-1.48h1.29V146a7.9,7.9,0,0,1,.16-1.73,1.85,1.85,0,0,1,.66-1.11,2.47,2.47,0,0,1,1.52-.39,6.38,6.38,0,0,1,.66,0,4.5,4.5,0,0,1,.65.1v1.46l-.38-.07-.37,0c-.39,0-.64.13-.74.39a2.59,2.59,0,0,0-.16,1v.89h1.65V148H81.54v9.33Z" style="fill:#263238"></path><path d="M85.82,157.52a1.41,1.41,0,0,1-1-.33,1.79,1.79,0,0,1-.49-.84,3.6,3.6,0,0,1-.14-1v-8.76h2v8.16a2.06,2.06,0,0,0,.16.91.73.73,0,0,0,.7.32,1.48,1.48,0,0,0,.7-.19,4,4,0,0,0,.7-.48v-8.72h2v10.81h-2v-1.06a5.74,5.74,0,0,1-1.19.86A3,3,0,0,1,85.82,157.52Z" style="fill:#263238"></path><path d="M92.5,157.37V146.56h2v1.07a5.71,5.71,0,0,1,1.2-.86,2.9,2.9,0,0,1,1.44-.36,1.41,1.41,0,0,1,1,.34,1.85,1.85,0,0,1,.48.84,3.6,3.6,0,0,1,.14,1v8.75h-2V149.2a2,2,0,0,0-.16-.9.73.73,0,0,0-.7-.31,1.48,1.48,0,0,0-.7.19,4,4,0,0,0-.7.48v8.71Z" style="fill:#263238"></path><path d="M103.66,157.52a3.21,3.21,0,0,1-2-.53,2.59,2.59,0,0,1-.91-1.5,9.58,9.58,0,0,1-.24-2.27v-2.49a9.69,9.69,0,0,1,.25-2.32,2.54,2.54,0,0,1,.92-1.48,3.3,3.3,0,0,1,2-.52,3.56,3.56,0,0,1,1.83.39,2,2,0,0,1,.89,1.14,6.27,6.27,0,0,1,.24,1.88v.63h-1.81v-.65a5.36,5.36,0,0,0-.1-1.12,1,1,0,0,0-.33-.6,1.12,1.12,0,0,0-.7-.19,1.09,1.09,0,0,0-.74.23,1.2,1.2,0,0,0-.35.75,9.4,9.4,0,0,0-.08,1.45v3.41a4.24,4.24,0,0,0,.26,1.85,1,1,0,0,0,.93.47,1,1,0,0,0,.74-.24,1.07,1.07,0,0,0,.3-.66,7,7,0,0,0,.07-1v-.88h1.81v.75a6.14,6.14,0,0,1-.25,1.87,2.14,2.14,0,0,1-.9,1.19A3.3,3.3,0,0,1,103.66,157.52Z" style="fill:#263238"></path><path d="M111.28,157.52a2.58,2.58,0,0,1-1.36-.31,1.9,1.9,0,0,1-.75-.9,3.78,3.78,0,0,1-.23-1.37v-7.05H107.8v-1.33h1.14V143.4h2v3.16h1.74v1.33h-1.74v6.92a1.5,1.5,0,0,0,.21.91.91.91,0,0,0,.78.27l.35,0,.38,0v1.48l-.69.09Z" style="fill:#263238"></path><path d="M114.29,145v-2.1h2V145Zm0,12.41V146.56h2v10.81Z" style="fill:#263238"></path><path d="M121.41,157.52a3.29,3.29,0,0,1-1.89-.48,2.69,2.69,0,0,1-1-1.39,6.94,6.94,0,0,1-.29-2.11V150.4a7.05,7.05,0,0,1,.29-2.12,2.7,2.7,0,0,1,1-1.38,3.28,3.28,0,0,1,1.89-.49,3.21,3.21,0,0,1,1.88.49,2.7,2.7,0,0,1,1,1.38,7.07,7.07,0,0,1,.28,2.12v3.14a7,7,0,0,1-.28,2.11,2.69,2.69,0,0,1-1,1.39A3.21,3.21,0,0,1,121.41,157.52Zm0-1.47a1,1,0,0,0,.82-.34,1.84,1.84,0,0,0,.28-.89c0-.37,0-.75,0-1.15v-3.38c0-.42,0-.8,0-1.16a1.91,1.91,0,0,0-.28-.89.93.93,0,0,0-.82-.35.94.94,0,0,0-.82.35,1.81,1.81,0,0,0-.29.89c0,.36,0,.74,0,1.16v3.38c0,.4,0,.78,0,1.15a1.74,1.74,0,0,0,.29.89A1,1,0,0,0,121.41,156.05Z" style="fill:#263238"></path><path d="M126.39,157.37V146.56h2v1.07a5.71,5.71,0,0,1,1.2-.86,2.9,2.9,0,0,1,1.44-.36,1.41,1.41,0,0,1,1,.34,1.85,1.85,0,0,1,.48.84,3.6,3.6,0,0,1,.14,1v8.75h-2V149.2a1.87,1.87,0,0,0-.17-.9.7.7,0,0,0-.69-.31,1.48,1.48,0,0,0-.7.19,4,4,0,0,0-.7.48v8.71Z" style="fill:#263238"></path><path d="M137.1,157.52a2.82,2.82,0,0,1-2.13-.83,3.46,3.46,0,0,1-.91-2.2l1.66-.5a3.59,3.59,0,0,0,.51,1.54,1.16,1.16,0,0,0,1,.52,1.1,1.1,0,0,0,.83-.31,1.24,1.24,0,0,0,.28-.83,1.7,1.7,0,0,0-.21-.85,2.83,2.83,0,0,0-.67-.76l-1.85-1.59a5.13,5.13,0,0,1-1-1.09,2.78,2.78,0,0,1-.38-1.55,2.83,2.83,0,0,1,.34-1.45,2.31,2.31,0,0,1,1-.9,3.31,3.31,0,0,1,1.46-.31,2.42,2.42,0,0,1,2,.84,3.51,3.51,0,0,1,.77,2l-1.34.5a4.88,4.88,0,0,0-.23-1,1.46,1.46,0,0,0-.41-.65,1,1,0,0,0-.69-.24,1,1,0,0,0-.78.33,1.16,1.16,0,0,0-.29.78,1.37,1.37,0,0,0,.12.55,1.7,1.7,0,0,0,.43.53l1.9,1.76a7.71,7.71,0,0,1,.74.77,3.62,3.62,0,0,1,.57.93,3.05,3.05,0,0,1,.23,1.22,2.89,2.89,0,0,1-.38,1.53,2.4,2.4,0,0,1-1,.93A3.87,3.87,0,0,1,137.1,157.52Z" style="fill:#263238"></path><path d="M142.15,154.14l-.63-11.91h2l-.68,11.91Zm-.63,3.23v-2.05h2v2.05Z" style="fill:#263238"></path></g></svg>